solid Visualization Toolkit generated SLA File
 facet normal 0 0 -1
  outer loop
   vertex -0.8209991455078125 0.83592641353607178 -11.999649047851563
   vertex -0.83032864332199097 0.83032864332199097 -11.999649047851563
   vertex -3.5918712615966797 0.96280807256698608 -11.999649047851563
  endloop
 endfacet
 facet normal -0 0 -1
  outer loop
   vertex -3.5918712615966797 0.96280807256698608 -11.999649047851563
   vertex -0.83032864332199097 0.83032864332199097 -11.999649047851563
   vertex -0.96840578317642212 0.6176152229309082 -11.999649047851563
  endloop
 endfacet
 facet normal 0.8387796485398773 -0.5444710287933785 0
  outer loop
   vertex -0.96840578317642212 0.6176152229309082 -11.999649047851563
   vertex -0.83032864332199097 0.83032864332199097 -11.999649047851563
   vertex -0.83032864332199097 0.83032864332199097 0
  endloop
 endfacet
 facet normal 0.51450058927026132 -0.85749002538837371 0
  outer loop
   vertex -0.83032864332199097 0.83032864332199097 0
   vertex -0.83032864332199097 0.83032864332199097 -11.999649047851563
   vertex -0.8209991455078125 0.83592641353607178 -11.999649047851563
  endloop
 endfacet
 facet normal 0.55095498669595211 -0.83453496098718472 3.9051008491898851e-05
  outer loop
   vertex -0.83032864332199097 0.83032864332199097 0
   vertex -0.8209991455078125 0.83592641353607178 -11.999649047851563
   vertex -0.62881070375442505 0.96280807256698608 -11.999649047851563
  endloop
 endfacet
 facet normal 0 0 -1
  outer loop
   vertex -0.62881070375442505 0.96280807256698608 -11.999649047851563
   vertex -0.8209991455078125 0.83592641353607178 -11.999649047851563
   vertex -3.5918712615966797 0.96280807256698608 -11.999649047851563
  endloop
 endfacet
 facet normal 0 0 -1
  outer loop
   vertex -0.62881070375442505 0.96280807256698608 -11.999649047851563
   vertex -3.5918712615966797 0.96280807256698608 -11.999649047851563
   vertex -3.2205557823181152 1.8584434986114502 -11.999649047851563
  endloop
 endfacet
 facet normal -0.71508248859375934 0.29646124891303538 -0.63306221052869627
  outer loop
   vertex -3.2205557823181152 1.8584434986114502 -11.999649047851563
   vertex -3.5918712615966797 0.96280807256698608 -11.999649047851563
   vertex -5.1928195953369141 2.1495249271392822 -9.6355438232421875
  endloop
 endfacet
 facet normal -0.79810641819909489 0.10517674471038144 -0.59326553717668351
  outer loop
   vertex -5.1928195953369141 2.1495249271392822 -9.6355438232421875
   vertex -3.5918712615966797 0.96280807256698608 -11.999649047851563
   vertex -3.7187528610229492 0 -11.999649047851563
  endloop
 endfacet
 facet normal 0 -0 -1
  outer loop
   vertex -3.7187528610229492 0 -11.999649047851563
   vertex -3.5918712615966797 0.96280807256698608 -11.999649047851563
   vertex -1.1512646675109863 0.12128396332263947 -11.999649047851563
  endloop
 endfacet
 facet normal 0 0 -1
  outer loop
   vertex -1.1512646675109863 0.12128396332263947 -11.999649047851563
   vertex -3.5918712615966797 0.96280807256698608 -11.999649047851563
   vertex -1.0915557146072388 0.43102455139160156 -11.999649047851563
  endloop
 endfacet
 facet normal 0 0 -1
  outer loop
   vertex -1.0915557146072388 0.43102455139160156 -11.999649047851563
   vertex -3.5918712615966797 0.96280807256698608 -11.999649047851563
   vertex -0.96840578317642212 0.6176152229309082 -11.999649047851563
  endloop
 endfacet
 facet normal 0.83460922515822322 -0.55084248318443096 0
  outer loop
   vertex -1.0915557146072388 0.43102455139160156 -11.999649047851563
   vertex -0.96840578317642212 0.6176152229309082 -11.999649047851563
   vertex -1.0915557146072388 0.43102455139160156 0
  endloop
 endfacet
 facet normal 0.83683171683834101 -0.54746020130040296 7.5402367392576072e-05
  outer loop
   vertex -1.0915557146072388 0.43102455139160156 0
   vertex -0.96840578317642212 0.6176152229309082 -11.999649047851563
   vertex -0.83032864332199097 0.83032864332199097 0
  endloop
 endfacet
 facet normal 0 0 -1
  outer loop
   vertex -1.0915557146072388 0.43102455139160156 0
   vertex -0.83032864332199097 0.83032864332199097 0
   vertex -1.17365562915802 0 0
  endloop
 endfacet
 facet normal 0 -0 -1
  outer loop
   vertex -1.17365562915802 0 0
   vertex -0.83032864332199097 0.83032864332199097 0
   vertex -0.83032864332199097 -0.83032864332199097 0
  endloop
 endfacet
 facet normal 0 0 -1
  outer loop
   vertex -0.83032864332199097 -0.83032864332199097 0
   vertex -0.83032864332199097 0.83032864332199097 0
   vertex -0.79860824346542358 0 0
  endloop
 endfacet
 facet normal 0 0 -1
  outer loop
   vertex -0.79860824346542358 0 0
   vertex -0.83032864332199097 0.83032864332199097 0
   vertex -0.5635039210319519 0.56536984443664551 0
  endloop
 endfacet
 facet normal 0 0 -1
  outer loop
   vertex -0.5635039210319519 0.56536984443664551 0
   vertex -0.83032864332199097 0.83032864332199097 0
   vertex -0.47953811287879944 0.6008220911026001 0
  endloop
 endfacet
 facet normal 0 0 -1
  outer loop
   vertex -0.47953811287879944 0.6008220911026001 0
   vertex -0.83032864332199097 0.83032864332199097 0
   vertex 0 1.17365562915802 0
  endloop
 endfacet
 facet normal 0 0 -1
  outer loop
   vertex 0 1.17365562915802 0
   vertex -0.83032864332199097 0.83032864332199097 0
   vertex -0.43102455139160156 1.0915557146072388 0
  endloop
 endfacet
 facet normal 0.5474602023024947 -0.83683171837010917 -4.4996020999105172e-05
  outer loop
   vertex -0.43102455139160156 1.0915557146072388 0
   vertex -0.83032864332199097 0.83032864332199097 0
   vertex -0.62881070375442505 0.96280807256698608 -11.999649047851563
  endloop
 endfacet
 facet normal 0.54554419917068375 -0.83808205251706536 0
  outer loop
   vertex -0.43102455139160156 1.0915557146072388 0
   vertex -0.62881070375442505 0.96280807256698608 -11.999649047851563
   vertex -0.43102455139160156 1.0915557146072388 -11.999649047851563
  endloop
 endfacet
 facet normal 0 0 -1
  outer loop
   vertex -0.43102455139160156 1.0915557146072388 -11.999649047851563
   vertex -0.62881070375442505 0.96280807256698608 -11.999649047851563
   vertex -3.2205557823181152 1.8584434986114502 -11.999649047851563
  endloop
 endfacet
 facet normal 0 0 -1
  outer loop
   vertex -0.43102455139160156 1.0915557146072388 -11.999649047851563
   vertex -3.2205557823181152 1.8584434986114502 -11.999649047851563
   vertex 0 1.17365562915802 -11.999649047851563
  endloop
 endfacet
 facet normal 0 0 -1
  outer loop
   vertex 0 1.17365562915802 -11.999649047851563
   vertex -3.2205557823181152 1.8584434986114502 -11.999649047851563
   vertex 3.5918712615966797 0.96280807256698608 -11.999649047851563
  endloop
 endfacet
 facet normal 0 0 -1
  outer loop
   vertex 3.5918712615966797 0.96280807256698608 -11.999649047851563
   vertex -3.2205557823181152 1.8584434986114502 -11.999649047851563
   vertex 3.2205557823181152 1.8584434986114502 -11.999649047851563
  endloop
 endfacet
 facet normal 0 0 -1
  outer loop
   vertex 3.2205557823181152 1.8584434986114502 -11.999649047851563
   vertex -3.2205557823181152 1.8584434986114502 -11.999649047851563
   vertex -2.6290631294250488 2.6290631294250488 -11.999649047851563
  endloop
 endfacet
 facet normal -0.62007047833783224 0.47593795635013159 -0.62369516881177789
  outer loop
   vertex -2.6290631294250488 2.6290631294250488 -11.999649047851563
   vertex -3.2205557823181152 1.8584434986114502 -11.999649047851563
   vertex -3.9743821620941162 3.9743821620941162 -9.6355438232421875
  endloop
 endfacet
 facet normal -0.66143788818994409 0.44163492206317118 -0.60618356599390244
  outer loop
   vertex -3.9743821620941162 3.9743821620941162 -9.6355438232421875
   vertex -3.2205557823181152 1.8584434986114502 -11.999649047851563
   vertex -5.1928195953369141 2.1495249271392822 -9.6355438232421875
  endloop
 endfacet
 facet normal -0.80770059472667421 0.53929294884912349 -0.2382915537735093
  outer loop
   vertex -3.9743821620941162 3.9743821620941162 -9.6355438232421875
   vertex -5.1928195953369141 2.1495249271392822 -9.6355438232421875
   vertex -5.6760892868041992 2.7316880226135254 -6.6799473762512207
  endloop
 endfacet
 facet normal -0.96198845975977987 0.19122865719573073 -0.19496103189130959
  outer loop
   vertex -5.6760892868041992 2.7316880226135254 -6.6799473762512207
   vertex -5.1928195953369141 2.1495249271392822 -9.6355438232421875
   vertex -5.620112419128418 0 -9.6355438232421875
  endloop
 endfacet
 facet normal -0.77006223546723807 0.15307664634803897 -0.61933165093513287
  outer loop
   vertex -5.620112419128418 0 -9.6355438232421875
   vertex -5.1928195953369141 2.1495249271392822 -9.6355438232421875
   vertex -3.7187528610229492 0 -11.999649047851563
  endloop
 endfacet
 facet normal -0.7751696255528211 -0.10215406862405747 -0.62343932975378646
  outer loop
   vertex -5.620112419128418 0 -9.6355438232421875
   vertex -3.7187528610229492 0 -11.999649047851563
   vertex -3.5918712615966797 -0.96280807256698608 -11.999649047851563
  endloop
 endfacet
 facet normal 0 0 -1
  outer loop
   vertex -3.5918712615966797 -0.96280807256698608 -11.999649047851563
   vertex -3.7187528610229492 0 -11.999649047851563
   vertex -0.99079668521881104 -0.58589482307434082 -11.999649047851563
  endloop
 endfacet
 facet normal 0 0 -1
  outer loop
   vertex -0.99079668521881104 -0.58589482307434082 -11.999649047851563
   vertex -3.7187528610229492 0 -11.999649047851563
   vertex -1.063567042350769 -0.47580632567405701 -11.999649047851563
  endloop
 endfacet
 facet normal 0 0 -1
  outer loop
   vertex -1.063567042350769 -0.47580632567405701 -11.999649047851563
   vertex -3.7187528610229492 0 -11.999649047851563
   vertex -1.0915557146072388 -0.43102455139160156 -11.999649047851563
  endloop
 endfacet
 facet normal 0 0 -1
  outer loop
   vertex -1.0915557146072388 -0.43102455139160156 -11.999649047851563
   vertex -3.7187528610229492 0 -11.999649047851563
   vertex -1.17365562915802 0 -11.999649047851563
  endloop
 endfacet
 facet normal 0 0 -1
  outer loop
   vertex -1.17365562915802 0 -11.999649047851563
   vertex -3.7187528610229492 0 -11.999649047851563
   vertex -1.1512646675109863 0.12128396332263947 -11.999649047851563
  endloop
 endfacet
 facet normal 0.98192201159654324 -0.18928592959382357 0
  outer loop
   vertex -1.1512646675109863 0.12128396332263947 -11.999649047851563
   vertex -1.0915557146072388 0.43102455139160156 -11.999649047851563
   vertex -1.0915557146072388 0.43102455139160156 0
  endloop
 endfacet
 facet normal 0.98233856475965586 -0.18711210757326779 -5.8184440346395717e-05
  outer loop
   vertex -1.1512646675109863 0.12128396332263947 -11.999649047851563
   vertex -1.0915557146072388 0.43102455139160156 0
   vertex -1.17365562915802 0 0
  endloop
 endfacet
 facet normal 0.98338207021375934 -0.18154807622803606 0
  outer loop
   vertex -1.1512646675109863 0.12128396332263947 -11.999649047851563
   vertex -1.17365562915802 0 0
   vertex -1.17365562915802 0 -11.999649047851563
  endloop
 endfacet
 facet normal 0.98233856642247475 0.18711210788999519 0
  outer loop
   vertex -1.17365562915802 0 -11.999649047851563
   vertex -1.17365562915802 0 0
   vertex -1.0915557146072388 -0.43102455139160156 0
  endloop
 endfacet
 facet normal 0 0 -1
  outer loop
   vertex -1.0915557146072388 -0.43102455139160156 0
   vertex -1.17365562915802 0 0
   vertex -0.83032864332199097 -0.83032864332199097 0
  endloop
 endfacet
 facet normal 0 -0 -1
  outer loop
   vertex -0.83032864332199097 -0.83032864332199097 0
   vertex -0.79860824346542358 0 0
   vertex -0.5635039210319519 -0.56536984443664551 0
  endloop
 endfacet
 facet normal 0 0 -1
  outer loop
   vertex -0.5635039210319519 -0.56536984443664551 0
   vertex -0.79860824346542358 0 0
   vertex -0.22577476501464844 -0.70531290769577026 0
  endloop
 endfacet
 facet normal 0 -0 -1
  outer loop
   vertex -0.79860824346542358 0 0
   vertex -0.5635039210319519 0.56536984443664551 0
   vertex -0.47953811287879944 0.6008220911026001 0
  endloop
 endfacet
 facet normal 0 -0 -1
  outer loop
   vertex -0.79860824346542358 0 0
   vertex -0.47953811287879944 0.6008220911026001 0
   vertex -0.22577476501464844 -0.70531290769577026 0
  endloop
 endfacet
 facet normal 0 0 -1
  outer loop
   vertex -0.22577476501464844 -0.70531290769577026 0
   vertex -0.47953811287879944 0.6008220911026001 0
   vertex 0.72024011611938477 -0.18845662474632263 0
  endloop
 endfacet
 facet normal 0 0 -1
  outer loop
   vertex 0.72024011611938477 -0.18845662474632263 0
   vertex -0.47953811287879944 0.6008220911026001 0
   vertex 0.35452234745025635 0.65306746959686279 0
  endloop
 endfacet
 facet normal 0 0 -1
  outer loop
   vertex 0.35452234745025635 0.65306746959686279 0
   vertex -0.47953811287879944 0.6008220911026001 0
   vertex 0 0.79860824346542358 0
  endloop
 endfacet
 facet normal 0 0 -1
  outer loop
   vertex 0 0.79860824346542358 0
   vertex -0.47953811287879944 0.6008220911026001 0
   vertex 0 1.17365562915802 0
  endloop
 endfacet
 facet normal 0 0 -1
  outer loop
   vertex 0 0.79860824346542358 0
   vertex 0 1.17365562915802 0
   vertex 0.35452234745025635 0.65306746959686279 0
  endloop
 endfacet
 facet normal 0 0 -1
  outer loop
   vertex 0.35452234745025635 0.65306746959686279 0
   vertex 0 1.17365562915802 0
   vertex 0.83032864332199097 0.83032864332199097 0
  endloop
 endfacet
 facet normal 0 0 -1
  outer loop
   vertex 0.83032864332199097 0.83032864332199097 0
   vertex 0 1.17365562915802 0
   vertex 0.43102455139160156 1.0915557146072388 0
  endloop
 endfacet
 facet normal -0.18711210788999519 -0.98233856642247475 0
  outer loop
   vertex 0.43102455139160156 1.0915557146072388 0
   vertex 0 1.17365562915802 0
   vertex 0.43102455139160156 1.0915557146072388 -11.999649047851563
  endloop
 endfacet
 facet normal 0.18711210788999519 -0.98233856642247475 0
  outer loop
   vertex -0.43102455139160156 1.0915557146072388 0
   vertex -0.43102455139160156 1.0915557146072388 -11.999649047851563
   vertex 0 1.17365562915802 -11.999649047851563
  endloop
 endfacet
 facet normal 0.18711210788999519 -0.98233856642247475 0
  outer loop
   vertex -0.43102455139160156 1.0915557146072388 0
   vertex 0 1.17365562915802 -11.999649047851563
   vertex 0 1.17365562915802 0
  endloop
 endfacet
 facet normal -0.18711210788999519 -0.98233856642247475 0
  outer loop
   vertex 0 1.17365562915802 0
   vertex 0 1.17365562915802 -11.999649047851563
   vertex 0.43102455139160156 1.0915557146072388 -11.999649047851563
  endloop
 endfacet
 facet normal 0 0 -1
  outer loop
   vertex 0.43102455139160156 1.0915557146072388 -11.999649047851563
   vertex 0 1.17365562915802 -11.999649047851563
   vertex 3.5918712615966797 0.96280807256698608 -11.999649047851563
  endloop
 endfacet
 facet normal 0 0 -1
  outer loop
   vertex 0.43102455139160156 1.0915557146072388 -11.999649047851563
   vertex 3.5918712615966797 0.96280807256698608 -11.999649047851563
   vertex 0.62881070375442505 0.96280807256698608 -11.999649047851563
  endloop
 endfacet
 facet normal -0 0 -1
  outer loop
   vertex 0.62881070375442505 0.96280807256698608 -11.999649047851563
   vertex 3.5918712615966797 0.96280807256698608 -11.999649047851563
   vertex 0.8209991455078125 0.83592641353607178 -11.999649047851563
  endloop
 endfacet
 facet normal 0 0 -1
  outer loop
   vertex 0.8209991455078125 0.83592641353607178 -11.999649047851563
   vertex 3.5918712615966797 0.96280807256698608 -11.999649047851563
   vertex 0.83032864332199097 0.83032864332199097 -11.999649047851563
  endloop
 endfacet
 facet normal 0 0 -1
  outer loop
   vertex 0.83032864332199097 0.83032864332199097 -11.999649047851563
   vertex 3.5918712615966797 0.96280807256698608 -11.999649047851563
   vertex 0.99079668521881104 0.58589482307434082 -11.999649047851563
  endloop
 endfacet
 facet normal 0 -0 -1
  outer loop
   vertex 0.99079668521881104 0.58589482307434082 -11.999649047851563
   vertex 3.5918712615966797 0.96280807256698608 -11.999649047851563
   vertex 3.7187528610229492 0 -11.999649047851563
  endloop
 endfacet
 facet normal 0.7751696255528211 0.10215406862405747 -0.62343932975378646
  outer loop
   vertex 3.7187528610229492 0 -11.999649047851563
   vertex 3.5918712615966797 0.96280807256698608 -11.999649047851563
   vertex 5.620112419128418 0 -9.6355438232421875
  endloop
 endfacet
 facet normal 0.78010695405601294 0.1550733834483157 -0.60612324322644273
  outer loop
   vertex 5.620112419128418 0 -9.6355438232421875
   vertex 3.5918712615966797 0.96280807256698608 -11.999649047851563
   vertex 5.1928195953369141 2.1495249271392822 -9.6355438232421875
  endloop
 endfacet
 facet normal 0.71508248859375934 0.29646124891303538 -0.63306221052869627
  outer loop
   vertex 5.1928195953369141 2.1495249271392822 -9.6355438232421875
   vertex 3.5918712615966797 0.96280807256698608 -11.999649047851563
   vertex 3.2205557823181152 1.8584434986114502 -11.999649047851563
  endloop
 endfacet
 facet normal 0.63865061174643833 0.49019922346755579 -0.5931526931808585
  outer loop
   vertex 5.1928195953369141 2.1495249271392822 -9.6355438232421875
   vertex 3.2205557823181152 1.8584434986114502 -11.999649047851563
   vertex 2.6290631294250488 2.6290631294250488 -11.999649047851563
  endloop
 endfacet
 facet normal 0 0 -1
  outer loop
   vertex 2.6290631294250488 2.6290631294250488 -11.999649047851563
   vertex 3.2205557823181152 1.8584434986114502 -11.999649047851563
   vertex -2.6290631294250488 2.6290631294250488 -11.999649047851563
  endloop
 endfacet
 facet normal 0 0 -1
  outer loop
   vertex 2.6290631294250488 2.6290631294250488 -11.999649047851563
   vertex -2.6290631294250488 2.6290631294250488 -11.999649047851563
   vertex -1.8584434986114502 3.2205557823181152 -11.999649047851563
  endloop
 endfacet
 facet normal -0.49019922346755579 0.63865061174643833 -0.5931526931808585
  outer loop
   vertex -1.8584434986114502 3.2205557823181152 -11.999649047851563
   vertex -2.6290631294250488 2.6290631294250488 -11.999649047851563
   vertex -2.1495249271392822 5.1928195953369141 -9.6355438232421875
  endloop
 endfacet
 facet normal -0.43588263722823628 0.65282267471064825 -0.61953924972239882
  outer loop
   vertex -2.1495249271392822 5.1928195953369141 -9.6355438232421875
   vertex -2.6290631294250488 2.6290631294250488 -11.999649047851563
   vertex -3.9743821620941162 3.9743821620941162 -9.6355438232421875
  endloop
 endfacet
 facet normal -0.5376195118385636 0.80519428332106191 -0.25025472342704336
  outer loop
   vertex -2.1495249271392822 5.1928195953369141 -9.6355438232421875
   vertex -3.9743821620941162 3.9743821620941162 -9.6355438232421875
   vertex -3.927734375 4.9241290092468262 -6.6799473762512207
  endloop
 endfacet
 facet normal -0.76837968197433593 0.61274187049992002 -0.18477030190286955
  outer loop
   vertex -3.927734375 4.9241290092468262 -6.6799473762512207
   vertex -3.9743821620941162 3.9743821620941162 -9.6355438232421875
   vertex -5.6760892868041992 2.7316880226135254 -6.6799473762512207
  endloop
 endfacet
 facet normal -0.78184163975467458 0.62347706481130616 0
  outer loop
   vertex -3.927734375 4.9241290092468262 -6.6799473762512207
   vertex -5.6760892868041992 2.7316880226135254 -6.6799473762512207
   vertex -3.927734375 4.9241290092468262 1.319196343421936
  endloop
 endfacet
 facet normal -0.78184163975467458 0.62347706481130616 0
  outer loop
   vertex -3.927734375 4.9241290092468262 1.319196343421936
   vertex -5.6760892868041992 2.7316880226135254 -6.6799473762512207
   vertex -5.6760892868041992 2.7316880226135254 1.319196343421936
  endloop
 endfacet
 facet normal -0.97494932980007454 0.22242707641468848 0
  outer loop
   vertex -5.6760892868041992 2.7316880226135254 1.319196343421936
   vertex -5.6760892868041992 2.7316880226135254 -6.6799473762512207
   vertex -6.2993025779724121 0 -6.6799473762512207
  endloop
 endfacet
 facet normal -0.95136498780414414 0.21704649295360268 -0.21862177356558651
  outer loop
   vertex -6.2993025779724121 0 -6.6799473762512207
   vertex -5.6760892868041992 2.7316880226135254 -6.6799473762512207
   vertex -5.620112419128418 0 -9.6355438232421875
  endloop
 endfacet
 facet normal -0.95680747321026871 -0.19019875596275795 -0.21987244583894616
  outer loop
   vertex -6.2993025779724121 0 -6.6799473762512207
   vertex -5.620112419128418 0 -9.6355438232421875
   vertex -5.1928195953369141 -2.1495249271392822 -9.6355438232421875
  endloop
 endfacet
 facet normal -0.78010695405601294 -0.1550733834483157 -0.60612324322644273
  outer loop
   vertex -5.1928195953369141 -2.1495249271392822 -9.6355438232421875
   vertex -5.620112419128418 0 -9.6355438232421875
   vertex -3.5918712615966797 -0.96280807256698608 -11.999649047851563
  endloop
 endfacet
 facet normal -0.71508248859375934 -0.29646124891303538 -0.63306221052869627
  outer loop
   vertex -5.1928195953369141 -2.1495249271392822 -9.6355438232421875
   vertex -3.5918712615966797 -0.96280807256698608 -11.999649047851563
   vertex -3.2205557823181152 -1.8584434986114502 -11.999649047851563
  endloop
 endfacet
 facet normal 0 0 -1
  outer loop
   vertex -3.2205557823181152 -1.8584434986114502 -11.999649047851563
   vertex -3.5918712615966797 -0.96280807256698608 -11.999649047851563
   vertex 3.2205557823181152 -1.8584434986114502 -11.999649047851563
  endloop
 endfacet
 facet normal 0 0 -1
  outer loop
   vertex 3.2205557823181152 -1.8584434986114502 -11.999649047851563
   vertex -3.5918712615966797 -0.96280807256698608 -11.999649047851563
   vertex 0 -1.17365562915802 -11.999649047851563
  endloop
 endfacet
 facet normal 0 0 -1
  outer loop
   vertex 0 -1.17365562915802 -11.999649047851563
   vertex -3.5918712615966797 -0.96280807256698608 -11.999649047851563
   vertex -0.43102455139160156 -1.0915557146072388 -11.999649047851563
  endloop
 endfacet
 facet normal 0 0 -1
  outer loop
   vertex -0.43102455139160156 -1.0915557146072388 -11.999649047851563
   vertex -3.5918712615966797 -0.96280807256698608 -11.999649047851563
   vertex -0.62881070375442505 -0.96280807256698608 -11.999649047851563
  endloop
 endfacet
 facet normal 0 0 -1
  outer loop
   vertex -0.62881070375442505 -0.96280807256698608 -11.999649047851563
   vertex -3.5918712615966797 -0.96280807256698608 -11.999649047851563
   vertex -0.8209991455078125 -0.83592641353607178 -11.999649047851563
  endloop
 endfacet
 facet normal 0 0 -1
  outer loop
   vertex -0.8209991455078125 -0.83592641353607178 -11.999649047851563
   vertex -3.5918712615966797 -0.96280807256698608 -11.999649047851563
   vertex -0.83032864332199097 -0.83032864332199097 -11.999649047851563
  endloop
 endfacet
 facet normal 0 0 -1
  outer loop
   vertex -0.83032864332199097 -0.83032864332199097 -11.999649047851563
   vertex -3.5918712615966797 -0.96280807256698608 -11.999649047851563
   vertex -0.99079668521881104 -0.58589482307434082 -11.999649047851563
  endloop
 endfacet
 facet normal 0.98233856642247475 0.18711210788999519 0
  outer loop
   vertex -1.0915557146072388 -0.43102455139160156 -11.999649047851563
   vertex -1.17365562915802 0 -11.999649047851563
   vertex -1.0915557146072388 -0.43102455139160156 0
  endloop
 endfacet
 facet normal 0.84799776502491209 0.52999980237048583 0
  outer loop
   vertex -1.0915557146072388 -0.43102455139160156 -11.999649047851563
   vertex -1.0915557146072388 -0.43102455139160156 0
   vertex -1.063567042350769 -0.47580632567405701 -11.999649047851563
  endloop
 endfacet
 facet normal 0.83421918877110757 0.551432980981438 -0.0001121249310104295
  outer loop
   vertex -1.063567042350769 -0.47580632567405701 -11.999649047851563
   vertex -1.0915557146072388 -0.43102455139160156 0
   vertex -0.99079668521881104 -0.58589482307434082 -11.999649047851563
  endloop
 endfacet
 facet normal 0.83683171858363303 0.5474602024421833 -3.89143515705729e-05
  outer loop
   vertex -0.99079668521881104 -0.58589482307434082 -11.999649047851563
   vertex -1.0915557146072388 -0.43102455139160156 0
   vertex -0.83032864332199097 -0.83032864332199097 0
  endloop
 endfacet
 facet normal 0.83595636673539575 0.54879591189672361 0
  outer loop
   vertex -0.99079668521881104 -0.58589482307434082 -11.999649047851563
   vertex -0.83032864332199097 -0.83032864332199097 0
   vertex -0.83032864332199097 -0.83032864332199097 -11.999649047851563
  endloop
 endfacet
 facet normal 0.51450058927026132 0.85749002538837371 0
  outer loop
   vertex -0.83032864332199097 -0.83032864332199097 -11.999649047851563
   vertex -0.83032864332199097 -0.83032864332199097 0
   vertex -0.8209991455078125 -0.83592641353607178 -11.999649047851563
  endloop
 endfacet
 facet normal 0.55095498669595211 0.83453496098718472 3.9051008491898851e-05
  outer loop
   vertex -0.8209991455078125 -0.83592641353607178 -11.999649047851563
   vertex -0.83032864332199097 -0.83032864332199097 0
   vertex -0.62881070375442505 -0.96280807256698608 -11.999649047851563
  endloop
 endfacet
 facet normal 0.5474602023024947 0.83683171837010917 -4.4996020999105172e-05
  outer loop
   vertex -0.62881070375442505 -0.96280807256698608 -11.999649047851563
   vertex -0.83032864332199097 -0.83032864332199097 0
   vertex -0.43102455139160156 -1.0915557146072388 0
  endloop
 endfacet
 facet normal 0 -0 -1
  outer loop
   vertex -0.83032864332199097 -0.83032864332199097 0
   vertex -0.5635039210319519 -0.56536984443664551 0
   vertex -0.22577476501464844 -0.70531290769577026 0
  endloop
 endfacet
 facet normal 0 0 -1
  outer loop
   vertex -0.83032864332199097 -0.83032864332199097 0
   vertex -0.22577476501464844 -0.70531290769577026 0
   vertex -0.43102455139160156 -1.0915557146072388 0
  endloop
 endfacet
 facet normal 0 -0 -1
  outer loop
   vertex -0.43102455139160156 -1.0915557146072388 0
   vertex -0.22577476501464844 -0.70531290769577026 0
   vertex 0 -0.79860824346542358 0
  endloop
 endfacet
 facet normal 0 0 -1
  outer loop
   vertex 0 -0.79860824346542358 0
   vertex -0.22577476501464844 -0.70531290769577026 0
   vertex 0.57469940185546875 -0.53924715518951416 0
  endloop
 endfacet
 facet normal 0 0 -1
  outer loop
   vertex 0.57469940185546875 -0.53924715518951416 0
   vertex -0.22577476501464844 -0.70531290769577026 0
   vertex 0.72024011611938477 -0.18845662474632263 0
  endloop
 endfacet
 facet normal 0 -0 -1
  outer loop
   vertex 0.57469940185546875 -0.53924715518951416 0
   vertex 0.72024011611938477 -0.18845662474632263 0
   vertex 1.0915557146072388 -0.43102455139160156 0
  endloop
 endfacet
 facet normal 0 0 -1
  outer loop
   vertex 1.0915557146072388 -0.43102455139160156 0
   vertex 0.72024011611938477 -0.18845662474632263 0
   vertex 0.79860824346542358 0 0
  endloop
 endfacet
 facet normal 0 0 -1
  outer loop
   vertex 0.79860824346542358 0 0
   vertex 0.72024011611938477 -0.18845662474632263 0
   vertex 0.35452234745025635 0.65306746959686279 0
  endloop
 endfacet
 facet normal 0 0 -1
  outer loop
   vertex 0.79860824346542358 0 0
   vertex 0.35452234745025635 0.65306746959686279 0
   vertex 0.5635039210319519 0.56536984443664551 0
  endloop
 endfacet
 facet normal 0 0 -1
  outer loop
   vertex 0.5635039210319519 0.56536984443664551 0
   vertex 0.35452234745025635 0.65306746959686279 0
   vertex 0.83032864332199097 0.83032864332199097 0
  endloop
 endfacet
 facet normal 0 0 -1
  outer loop
   vertex 0.5635039210319519 0.56536984443664551 0
   vertex 0.83032864332199097 0.83032864332199097 0
   vertex 0.79860824346542358 0 0
  endloop
 endfacet
 facet normal -0.54554419917068375 -0.83808205251706536 0
  outer loop
   vertex 0.43102455139160156 1.0915557146072388 0
   vertex 0.43102455139160156 1.0915557146072388 -11.999649047851563
   vertex 0.62881070375442505 0.96280807256698608 -11.999649047851563
  endloop
 endfacet
 facet normal -0.5474602023024947 -0.83683171837010917 -4.4996020999105172e-05
  outer loop
   vertex 0.43102455139160156 1.0915557146072388 0
   vertex 0.62881070375442505 0.96280807256698608 -11.999649047851563
   vertex 0.83032864332199097 0.83032864332199097 0
  endloop
 endfacet
 facet normal -0.55095498669595211 -0.83453496098718472 3.9051008491898851e-05
  outer loop
   vertex 0.83032864332199097 0.83032864332199097 0
   vertex 0.62881070375442505 0.96280807256698608 -11.999649047851563
   vertex 0.8209991455078125 0.83592641353607178 -11.999649047851563
  endloop
 endfacet
 facet normal -0.51450058927026132 -0.85749002538837371 0
  outer loop
   vertex 0.83032864332199097 0.83032864332199097 0
   vertex 0.8209991455078125 0.83592641353607178 -11.999649047851563
   vertex 0.83032864332199097 0.83032864332199097 -11.999649047851563
  endloop
 endfacet
 facet normal -0.83595636673539575 -0.54879591189672361 0
  outer loop
   vertex 0.83032864332199097 0.83032864332199097 0
   vertex 0.83032864332199097 0.83032864332199097 -11.999649047851563
   vertex 0.99079668521881104 0.58589482307434082 -11.999649047851563
  endloop
 endfacet
 facet normal -0.83683171858363303 -0.5474602024421833 -3.89143515705729e-05
  outer loop
   vertex 0.83032864332199097 0.83032864332199097 0
   vertex 0.99079668521881104 0.58589482307434082 -11.999649047851563
   vertex 1.0915557146072388 0.43102455139160156 0
  endloop
 endfacet
 facet normal -0.83421918877110757 -0.551432980981438 -0.0001121249310104295
  outer loop
   vertex 1.0915557146072388 0.43102455139160156 0
   vertex 0.99079668521881104 0.58589482307434082 -11.999649047851563
   vertex 1.063567042350769 0.47580632567405701 -11.999649047851563
  endloop
 endfacet
 facet normal 0 0 -1
  outer loop
   vertex 1.063567042350769 0.47580632567405701 -11.999649047851563
   vertex 0.99079668521881104 0.58589482307434082 -11.999649047851563
   vertex 3.7187528610229492 0 -11.999649047851563
  endloop
 endfacet
 facet normal 0 0 -1
  outer loop
   vertex 1.063567042350769 0.47580632567405701 -11.999649047851563
   vertex 3.7187528610229492 0 -11.999649047851563
   vertex 1.0915557146072388 0.43102455139160156 -11.999649047851563
  endloop
 endfacet
 facet normal 0 0 -1
  outer loop
   vertex 1.0915557146072388 0.43102455139160156 -11.999649047851563
   vertex 3.7187528610229492 0 -11.999649047851563
   vertex 1.17365562915802 0 -11.999649047851563
  endloop
 endfacet
 facet normal -0 0 -1
  outer loop
   vertex 1.17365562915802 0 -11.999649047851563
   vertex 3.7187528610229492 0 -11.999649047851563
   vertex 1.1512646675109863 -0.12128396332263947 -11.999649047851563
  endloop
 endfacet
 facet normal 0 0 -1
  outer loop
   vertex 1.1512646675109863 -0.12128396332263947 -11.999649047851563
   vertex 3.7187528610229492 0 -11.999649047851563
   vertex 3.5918712615966797 -0.96280807256698608 -11.999649047851563
  endloop
 endfacet
 facet normal 0.79810641819909489 -0.10517674471038144 -0.59326553717668351
  outer loop
   vertex 3.5918712615966797 -0.96280807256698608 -11.999649047851563
   vertex 3.7187528610229492 0 -11.999649047851563
   vertex 5.1928195953369141 -2.1495249271392822 -9.6355438232421875
  endloop
 endfacet
 facet normal 0.77006223546723807 -0.15307664634803897 -0.61933165093513287
  outer loop
   vertex 5.1928195953369141 -2.1495249271392822 -9.6355438232421875
   vertex 3.7187528610229492 0 -11.999649047851563
   vertex 5.620112419128418 0 -9.6355438232421875
  endloop
 endfacet
 facet normal 0.9569307782171711 -0.19022326712051274 -0.21931391735746628
  outer loop
   vertex 5.1928195953369141 -2.1495249271392822 -9.6355438232421875
   vertex 5.620112419128418 0 -9.6355438232421875
   vertex 5.8178982734680176 -2.4126179218292236 -6.6799473762512207
  endloop
 endfacet
 facet normal 0.95667643413500492 -0.1908914582966055 -0.2198423333212397
  outer loop
   vertex 5.8178982734680176 -2.4126179218292236 -6.6799473762512207
   vertex 5.620112419128418 0 -9.6355438232421875
   vertex 6.2993025779724121 0 -6.6799473762512207
  endloop
 endfacet
 facet normal 0.95680747321026871 0.19019875596275795 -0.21987244583894616
  outer loop
   vertex 6.2993025779724121 0 -6.6799473762512207
   vertex 5.620112419128418 0 -9.6355438232421875
   vertex 5.1928195953369141 2.1495249271392822 -9.6355438232421875
  endloop
 endfacet
 facet normal 0.95541926178949232 0.21797144390436649 -0.19915442210472539
  outer loop
   vertex 6.2993025779724121 0 -6.6799473762512207
   vertex 5.1928195953369141 2.1495249271392822 -9.6355438232421875
   vertex 5.6760892868041992 2.7316880226135254 -6.6799473762512207
  endloop
 endfacet
 facet normal 0.80770059472667421 0.53929294884912349 -0.2382915537735093
  outer loop
   vertex 5.6760892868041992 2.7316880226135254 -6.6799473762512207
   vertex 5.1928195953369141 2.1495249271392822 -9.6355438232421875
   vertex 3.9743821620941162 3.9743821620941162 -9.6355438232421875
  endloop
 endfacet
 facet normal 0.65282267471064825 0.43588263722823628 -0.61953924972239882
  outer loop
   vertex 3.9743821620941162 3.9743821620941162 -9.6355438232421875
   vertex 5.1928195953369141 2.1495249271392822 -9.6355438232421875
   vertex 2.6290631294250488 2.6290631294250488 -11.999649047851563
  endloop
 endfacet
 facet normal 0.47593795635013159 0.62007047833783224 -0.62369516881177789
  outer loop
   vertex 3.9743821620941162 3.9743821620941162 -9.6355438232421875
   vertex 2.6290631294250488 2.6290631294250488 -11.999649047851563
   vertex 1.8584434986114502 3.2205557823181152 -11.999649047851563
  endloop
 endfacet
 facet normal 0 0 -1
  outer loop
   vertex 1.8584434986114502 3.2205557823181152 -11.999649047851563
   vertex 2.6290631294250488 2.6290631294250488 -11.999649047851563
   vertex -1.8584434986114502 3.2205557823181152 -11.999649047851563
  endloop
 endfacet
 facet normal 0 0 -1
  outer loop
   vertex 1.8584434986114502 3.2205557823181152 -11.999649047851563
   vertex -1.8584434986114502 3.2205557823181152 -11.999649047851563
   vertex -0.96094214916229248 3.5918712615966797 -11.999649047851563
  endloop
 endfacet
 facet normal -0.29591313735889835 0.71524742414550058 -0.63313232218205395
  outer loop
   vertex -0.96094214916229248 3.5918712615966797 -11.999649047851563
   vertex -1.8584434986114502 3.2205557823181152 -11.999649047851563
   vertex -2.1495249271392822 5.1928195953369141 -9.6355438232421875
  endloop
 endfacet
 facet normal -0.15506187920682152 0.78004908120516525 -0.6062006635824696
  outer loop
   vertex -0.96094214916229248 3.5918712615966797 -11.999649047851563
   vertex -2.1495249271392822 5.1928195953369141 -9.6355438232421875
   vertex 0 5.620112419128418 -9.6355438232421875
  endloop
 endfacet
 facet normal -0.18845565700117636 0.94803869812262875 -0.25633394665203069
  outer loop
   vertex 0 5.620112419128418 -9.6355438232421875
   vertex -2.1495249271392822 5.1928195953369141 -9.6355438232421875
   vertex -1.4012962579727173 6.1407003402709961 -6.6799473762512207
  endloop
 endfacet
 facet normal -0.42705897656970865 0.88686791239447482 -0.17631204297012518
  outer loop
   vertex -1.4012962579727173 6.1407003402709961 -6.6799473762512207
   vertex -2.1495249271392822 5.1928195953369141 -9.6355438232421875
   vertex -3.927734375 4.9241290092468262 -6.6799473762512207
  endloop
 endfacet
 facet normal -0.43385561764388342 0.90098240994974166 0
  outer loop
   vertex -1.4012962579727173 6.1407003402709961 -6.6799473762512207
   vertex -3.927734375 4.9241290092468262 -6.6799473762512207
   vertex -1.4012962579727173 6.1407003402709961 1.319196343421936
  endloop
 endfacet
 facet normal -0.43385561764388342 0.90098240994974166 0
  outer loop
   vertex -1.4012962579727173 6.1407003402709961 1.319196343421936
   vertex -3.927734375 4.9241290092468262 -6.6799473762512207
   vertex -3.927734375 4.9241290092468262 1.319196343421936
  endloop
 endfacet
 facet normal 0 0 1
  outer loop
   vertex -1.4012962579727173 6.1407003402709961 1.319196343421936
   vertex -3.927734375 4.9241290092468262 1.319196343421936
   vertex 1.4012962579727173 6.1407003402709961 1.319196343421936
  endloop
 endfacet
 facet normal 0 0 1
  outer loop
   vertex 1.4012962579727173 6.1407003402709961 1.319196343421936
   vertex -3.927734375 4.9241290092468262 1.319196343421936
   vertex 3.927734375 4.9241290092468262 1.319196343421936
  endloop
 endfacet
 facet normal -0 0 1
  outer loop
   vertex 3.927734375 4.9241290092468262 1.319196343421936
   vertex -3.927734375 4.9241290092468262 1.319196343421936
   vertex 0 4.888676643371582 1.319196343421936
  endloop
 endfacet
 facet normal 0 0 1
  outer loop
   vertex 0 4.888676643371582 1.319196343421936
   vertex -3.927734375 4.9241290092468262 1.319196343421936
   vertex -2.444338321685791 4.2337431907653809 1.319196343421936
  endloop
 endfacet
 facet normal 0 0 1
  outer loop
   vertex -2.444338321685791 4.2337431907653809 1.319196343421936
   vertex -3.927734375 4.9241290092468262 1.319196343421936
   vertex -5.6760892868041992 2.7316880226135254 1.319196343421936
  endloop
 endfacet
 facet normal -0 0 1
  outer loop
   vertex -2.444338321685791 4.2337431907653809 1.319196343421936
   vertex -5.6760892868041992 2.7316880226135254 1.319196343421936
   vertex -4.2337431907653809 2.444338321685791 1.319196343421936
  endloop
 endfacet
 facet normal 0 0 1
  outer loop
   vertex -4.2337431907653809 2.444338321685791 1.319196343421936
   vertex -5.6760892868041992 2.7316880226135254 1.319196343421936
   vertex -6.2993025779724121 0 1.319196343421936
  endloop
 endfacet
 facet normal -0.97494932980007454 0.22242707641468848 0
  outer loop
   vertex -6.2993025779724121 0 1.319196343421936
   vertex -5.6760892868041992 2.7316880226135254 1.319196343421936
   vertex -6.2993025779724121 0 -6.6799473762512207
  endloop
 endfacet
 facet normal -0.98066807020834124 -0.1956786551309265 0
  outer loop
   vertex -6.2993025779724121 0 1.319196343421936
   vertex -6.2993025779724121 0 -6.6799473762512207
   vertex -5.8178982734680176 -2.4126179218292236 -6.6799473762512207
  endloop
 endfacet
 facet normal -0.95678626143591217 -0.19091337280487905 -0.2193447834158716
  outer loop
   vertex -5.8178982734680176 -2.4126179218292236 -6.6799473762512207
   vertex -6.2993025779724121 0 -6.6799473762512207
   vertex -5.1928195953369141 -2.1495249271392822 -9.6355438232421875
  endloop
 endfacet
 facet normal -0.81131827811274404 -0.54170843690746306 -0.21980587113051644
  outer loop
   vertex -5.8178982734680176 -2.4126179218292236 -6.6799473762512207
   vertex -5.1928195953369141 -2.1495249271392822 -9.6355438232421875
   vertex -3.9743821620941162 -3.9743821620941162 -9.6355438232421875
  endloop
 endfacet
 facet normal -0.65282267471064825 -0.43588263722823628 -0.61953924972239882
  outer loop
   vertex -3.9743821620941162 -3.9743821620941162 -9.6355438232421875
   vertex -5.1928195953369141 -2.1495249271392822 -9.6355438232421875
   vertex -2.6290631294250488 -2.6290631294250488 -11.999649047851563
  endloop
 endfacet
 facet normal -0.63865061174643833 -0.49019922346755579 -0.5931526931808585
  outer loop
   vertex -2.6290631294250488 -2.6290631294250488 -11.999649047851563
   vertex -5.1928195953369141 -2.1495249271392822 -9.6355438232421875
   vertex -3.2205557823181152 -1.8584434986114502 -11.999649047851563
  endloop
 endfacet
 facet normal 0 0 -1
  outer loop
   vertex -2.6290631294250488 -2.6290631294250488 -11.999649047851563
   vertex -3.2205557823181152 -1.8584434986114502 -11.999649047851563
   vertex 2.6290631294250488 -2.6290631294250488 -11.999649047851563
  endloop
 endfacet
 facet normal 0 0 -1
  outer loop
   vertex 2.6290631294250488 -2.6290631294250488 -11.999649047851563
   vertex -3.2205557823181152 -1.8584434986114502 -11.999649047851563
   vertex 3.2205557823181152 -1.8584434986114502 -11.999649047851563
  endloop
 endfacet
 facet normal 0.62007047833783224 -0.47593795635013159 -0.62369516881177789
  outer loop
   vertex 2.6290631294250488 -2.6290631294250488 -11.999649047851563
   vertex 3.2205557823181152 -1.8584434986114502 -11.999649047851563
   vertex 3.9743821620941162 -3.9743821620941162 -9.6355438232421875
  endloop
 endfacet
 facet normal 0 0 -1
  outer loop
   vertex 3.2205557823181152 -1.8584434986114502 -11.999649047851563
   vertex 0 -1.17365562915802 -11.999649047851563
   vertex 0.43102455139160156 -1.0915557146072388 -11.999649047851563
  endloop
 endfacet
 facet normal -0.18711210788999519 0.98233856642247475 0
  outer loop
   vertex 0.43102455139160156 -1.0915557146072388 -11.999649047851563
   vertex 0 -1.17365562915802 -11.999649047851563
   vertex 0.43102455139160156 -1.0915557146072388 0
  endloop
 endfacet
 facet normal -0.18711210788999519 0.98233856642247475 0
  outer loop
   vertex 0.43102455139160156 -1.0915557146072388 0
   vertex 0 -1.17365562915802 -11.999649047851563
   vertex 0 -1.17365562915802 0
  endloop
 endfacet
 facet normal 0.18711210788999519 0.98233856642247475 -0
  outer loop
   vertex 0 -1.17365562915802 0
   vertex 0 -1.17365562915802 -11.999649047851563
   vertex -0.43102455139160156 -1.0915557146072388 -11.999649047851563
  endloop
 endfacet
 facet normal 0.54554419917068375 0.83808205251706536 0
  outer loop
   vertex -0.43102455139160156 -1.0915557146072388 -11.999649047851563
   vertex -0.62881070375442505 -0.96280807256698608 -11.999649047851563
   vertex -0.43102455139160156 -1.0915557146072388 0
  endloop
 endfacet
 facet normal 0.18711210788999519 0.98233856642247475 0
  outer loop
   vertex -0.43102455139160156 -1.0915557146072388 -11.999649047851563
   vertex -0.43102455139160156 -1.0915557146072388 0
   vertex 0 -1.17365562915802 0
  endloop
 endfacet
 facet normal 0 -0 -1
  outer loop
   vertex -0.43102455139160156 -1.0915557146072388 0
   vertex 0 -0.79860824346542358 0
   vertex 0.5635039210319519 -0.56536984443664551 0
  endloop
 endfacet
 facet normal 0 0 -1
  outer loop
   vertex 0.5635039210319519 -0.56536984443664551 0
   vertex 0 -0.79860824346542358 0
   vertex 0.57469940185546875 -0.53924715518951416 0
  endloop
 endfacet
 facet normal 0 -0 -1
  outer loop
   vertex 0.5635039210319519 -0.56536984443664551 0
   vertex 0.57469940185546875 -0.53924715518951416 0
   vertex 1.0915557146072388 -0.43102455139160156 0
  endloop
 endfacet
 facet normal 0 0 -1
  outer loop
   vertex 0.5635039210319519 -0.56536984443664551 0
   vertex 1.0915557146072388 -0.43102455139160156 0
   vertex -0.43102455139160156 -1.0915557146072388 0
  endloop
 endfacet
 facet normal 0 0 -1
  outer loop
   vertex -0.43102455139160156 -1.0915557146072388 0
   vertex 1.0915557146072388 -0.43102455139160156 0
   vertex 0 -1.17365562915802 0
  endloop
 endfacet
 facet normal 0 0 -1
  outer loop
   vertex 0 -1.17365562915802 0
   vertex 1.0915557146072388 -0.43102455139160156 0
   vertex 0.83032864332199097 -0.83032864332199097 0
  endloop
 endfacet
 facet normal -0.83683171683834101 0.54746020130040296 7.5402367392576072e-05
  outer loop
   vertex 0.83032864332199097 -0.83032864332199097 0
   vertex 1.0915557146072388 -0.43102455139160156 0
   vertex 0.96840578317642212 -0.6176152229309082 -11.999649047851563
  endloop
 endfacet
 facet normal -0.83460922515822322 0.55084248318443096 0
  outer loop
   vertex 0.96840578317642212 -0.6176152229309082 -11.999649047851563
   vertex 1.0915557146072388 -0.43102455139160156 0
   vertex 1.0915557146072388 -0.43102455139160156 -11.999649047851563
  endloop
 endfacet
 facet normal 0 0 0
  outer loop
   vertex 0.79860824346542358 0 0
   vertex 0.5635039210319519 0.56536984443664551 0
   vertex 0.79860824346542358 0 0
  endloop
 endfacet
 facet normal -0 0 0
  outer loop
   vertex 0.79860824346542358 0 0
   vertex 0.79860824346542358 0 0
   vertex 1.0915557146072388 -0.43102455139160156 0
  endloop
 endfacet
 facet normal 0 0 -1
  outer loop
   vertex 1.0915557146072388 -0.43102455139160156 0
   vertex 0.79860824346542358 0 0
   vertex 0.83032864332199097 0.83032864332199097 0
  endloop
 endfacet
 facet normal 0 0 -1
  outer loop
   vertex 1.0915557146072388 -0.43102455139160156 0
   vertex 0.83032864332199097 0.83032864332199097 0
   vertex 1.0915557146072388 0.43102455139160156 0
  endloop
 endfacet
 facet normal 0 0 -1
  outer loop
   vertex 1.0915557146072388 -0.43102455139160156 0
   vertex 1.0915557146072388 0.43102455139160156 0
   vertex 1.17365562915802 0 0
  endloop
 endfacet
 facet normal -0.84799776502491209 -0.52999980237048583 0
  outer loop
   vertex 1.0915557146072388 0.43102455139160156 0
   vertex 1.063567042350769 0.47580632567405701 -11.999649047851563
   vertex 1.0915557146072388 0.43102455139160156 -11.999649047851563
  endloop
 endfacet
 facet normal -0.98233856642247475 -0.18711210788999519 0
  outer loop
   vertex 1.0915557146072388 0.43102455139160156 0
   vertex 1.0915557146072388 0.43102455139160156 -11.999649047851563
   vertex 1.17365562915802 0 -11.999649047851563
  endloop
 endfacet
 facet normal -0.98233856642247475 -0.18711210788999519 0
  outer loop
   vertex 1.0915557146072388 0.43102455139160156 0
   vertex 1.17365562915802 0 -11.999649047851563
   vertex 1.17365562915802 0 0
  endloop
 endfacet
 facet normal -0.98338207021375934 0.18154807622803606 0
  outer loop
   vertex 1.17365562915802 0 0
   vertex 1.17365562915802 0 -11.999649047851563
   vertex 1.1512646675109863 -0.12128396332263947 -11.999649047851563
  endloop
 endfacet
 facet normal -0.98233856475965586 0.18711210757326779 -5.8184440346395717e-05
  outer loop
   vertex 1.17365562915802 0 0
   vertex 1.1512646675109863 -0.12128396332263947 -11.999649047851563
   vertex 1.0915557146072388 -0.43102455139160156 0
  endloop
 endfacet
 facet normal -0.98192201159654324 0.18928592959382357 0
  outer loop
   vertex 1.0915557146072388 -0.43102455139160156 0
   vertex 1.1512646675109863 -0.12128396332263947 -11.999649047851563
   vertex 1.0915557146072388 -0.43102455139160156 -11.999649047851563
  endloop
 endfacet
 facet normal 0 -0 -1
  outer loop
   vertex 1.0915557146072388 -0.43102455139160156 -11.999649047851563
   vertex 1.1512646675109863 -0.12128396332263947 -11.999649047851563
   vertex 3.5918712615966797 -0.96280807256698608 -11.999649047851563
  endloop
 endfacet
 facet normal 0 0 -1
  outer loop
   vertex 1.0915557146072388 -0.43102455139160156 -11.999649047851563
   vertex 3.5918712615966797 -0.96280807256698608 -11.999649047851563
   vertex 0.96840578317642212 -0.6176152229309082 -11.999649047851563
  endloop
 endfacet
 facet normal 0 0 -1
  outer loop
   vertex 0.96840578317642212 -0.6176152229309082 -11.999649047851563
   vertex 3.5918712615966797 -0.96280807256698608 -11.999649047851563
   vertex 0.83032864332199097 -0.83032864332199097 -11.999649047851563
  endloop
 endfacet
 facet normal 0 0 -1
  outer loop
   vertex 0.83032864332199097 -0.83032864332199097 -11.999649047851563
   vertex 3.5918712615966797 -0.96280807256698608 -11.999649047851563
   vertex 0.8209991455078125 -0.83592641353607178 -11.999649047851563
  endloop
 endfacet
 facet normal 0 0 -1
  outer loop
   vertex 0.8209991455078125 -0.83592641353607178 -11.999649047851563
   vertex 3.5918712615966797 -0.96280807256698608 -11.999649047851563
   vertex 0.62881070375442505 -0.96280807256698608 -11.999649047851563
  endloop
 endfacet
 facet normal 0.98062307157867834 -0.19566967628109683 0.0095796279494054608
  outer loop
   vertex 5.8178982734680176 -2.4126179218292236 -6.6799473762512207
   vertex 6.2993025779724121 0 -6.6799473762512207
   vertex 5.6760892868041992 -2.7316880226135254 1.319196343421936
  endloop
 endfacet
 facet normal 0.97494932980007454 -0.22242707641468848 0
  outer loop
   vertex 5.6760892868041992 -2.7316880226135254 1.319196343421936
   vertex 6.2993025779724121 0 -6.6799473762512207
   vertex 6.2993025779724121 0 1.319196343421936
  endloop
 endfacet
 facet normal 0.97494932980007454 0.22242707641468848 -0
  outer loop
   vertex 6.2993025779724121 0 1.319196343421936
   vertex 6.2993025779724121 0 -6.6799473762512207
   vertex 5.6760892868041992 2.7316880226135254 -6.6799473762512207
  endloop
 endfacet
 facet normal 0.97494932980007454 0.22242707641468848 -0
  outer loop
   vertex 6.2993025779724121 0 1.319196343421936
   vertex 5.6760892868041992 2.7316880226135254 -6.6799473762512207
   vertex 5.6760892868041992 2.7316880226135254 1.319196343421936
  endloop
 endfacet
 facet normal 0.78184163975467458 0.62347706481130616 -0
  outer loop
   vertex 5.6760892868041992 2.7316880226135254 1.319196343421936
   vertex 5.6760892868041992 2.7316880226135254 -6.6799473762512207
   vertex 3.927734375 4.9241290092468262 -6.6799473762512207
  endloop
 endfacet
 facet normal 0.76837968197433593 0.61274187049992002 -0.18477030190286955
  outer loop
   vertex 3.927734375 4.9241290092468262 -6.6799473762512207
   vertex 5.6760892868041992 2.7316880226135254 -6.6799473762512207
   vertex 3.9743821620941162 3.9743821620941162 -9.6355438232421875
  endloop
 endfacet
 facet normal 0.5376195118385636 0.80519428332106191 -0.25025472342704336
  outer loop
   vertex 3.927734375 4.9241290092468262 -6.6799473762512207
   vertex 3.9743821620941162 3.9743821620941162 -9.6355438232421875
   vertex 2.1495249271392822 5.1928195953369141 -9.6355438232421875
  endloop
 endfacet
 facet normal 0.44163492206317118 0.66143788818994409 -0.60618356599390244
  outer loop
   vertex 2.1495249271392822 5.1928195953369141 -9.6355438232421875
   vertex 3.9743821620941162 3.9743821620941162 -9.6355438232421875
   vertex 1.8584434986114502 3.2205557823181152 -11.999649047851563
  endloop
 endfacet
 facet normal 0.29591313735889835 0.71524742414550058 -0.63313232218205395
  outer loop
   vertex 2.1495249271392822 5.1928195953369141 -9.6355438232421875
   vertex 1.8584434986114502 3.2205557823181152 -11.999649047851563
   vertex 0.96094214916229248 3.5918712615966797 -11.999649047851563
  endloop
 endfacet
 facet normal 0 0 -1
  outer loop
   vertex 0.96094214916229248 3.5918712615966797 -11.999649047851563
   vertex 1.8584434986114502 3.2205557823181152 -11.999649047851563
   vertex -0.96094214916229248 3.5918712615966797 -11.999649047851563
  endloop
 endfacet
 facet normal 0 0 -1
  outer loop
   vertex 0.96094214916229248 3.5918712615966797 -11.999649047851563
   vertex -0.96094214916229248 3.5918712615966797 -11.999649047851563
   vertex 0 3.7187528610229492 -11.999649047851563
  endloop
 endfacet
 facet normal -0.10235035183610794 0.77515390336846135 -0.62342668500126208
  outer loop
   vertex 0 3.7187528610229492 -11.999649047851563
   vertex -0.96094214916229248 3.5918712615966797 -11.999649047851563
   vertex 0 5.620112419128418 -9.6355438232421875
  endloop
 endfacet
 facet normal 0 0.98483984452861162 -0.17346607918800788
  outer loop
   vertex 0 5.620112419128418 -9.6355438232421875
   vertex -1.4012962579727173 6.1407003402709961 -6.6799473762512207
   vertex 1.4012962579727173 6.1407003402709961 -6.6799473762512207
  endloop
 endfacet
 facet normal -0 1 0
  outer loop
   vertex -1.4012962579727173 6.1407003402709961 -6.6799473762512207
   vertex -1.4012962579727173 6.1407003402709961 1.319196343421936
   vertex 1.4012962579727173 6.1407003402709961 1.319196343421936
  endloop
 endfacet
 facet normal 0 1 0
  outer loop
   vertex -1.4012962579727173 6.1407003402709961 -6.6799473762512207
   vertex 1.4012962579727173 6.1407003402709961 1.319196343421936
   vertex 1.4012962579727173 6.1407003402709961 -6.6799473762512207
  endloop
 endfacet
 facet normal 0.43385561764388342 0.90098240994974166 0
  outer loop
   vertex 1.4012962579727173 6.1407003402709961 -6.6799473762512207
   vertex 1.4012962579727173 6.1407003402709961 1.319196343421936
   vertex 3.927734375 4.9241290092468262 1.319196343421936
  endloop
 endfacet
 facet normal -0 0 1
  outer loop
   vertex 3.927734375 4.9241290092468262 1.319196343421936
   vertex 0 4.888676643371582 1.319196343421936
   vertex 2.444338321685791 4.2337431907653809 1.319196343421936
  endloop
 endfacet
 facet normal 0.25880981778247092 0.96592829869478636 0
  outer loop
   vertex 2.444338321685791 4.2337431907653809 1.319196343421936
   vertex 0 4.888676643371582 1.319196343421936
   vertex 2.444338321685791 4.2337431907653809 2.1084749698638916
  endloop
 endfacet
 facet normal 0.25880981778247092 0.96592829869478636 -0
  outer loop
   vertex 2.444338321685791 4.2337431907653809 2.1084749698638916
   vertex 0 4.888676643371582 1.319196343421936
   vertex 0 4.888676643371582 2.1084749698638916
  endloop
 endfacet
 facet normal -0.25880981778247092 0.96592829869478636 0
  outer loop
   vertex 0 4.888676643371582 2.1084749698638916
   vertex 0 4.888676643371582 1.319196343421936
   vertex -2.444338321685791 4.2337431907653809 1.319196343421936
  endloop
 endfacet
 facet normal -0.25880981778247092 0.96592829869478636 0
  outer loop
   vertex 0 4.888676643371582 2.1084749698638916
   vertex -2.444338321685791 4.2337431907653809 1.319196343421936
   vertex -2.444338321685791 4.2337431907653809 2.1084749698638916
  endloop
 endfacet
 facet normal -0.70710678118654746 0.70710678118654746 0
  outer loop
   vertex -2.444338321685791 4.2337431907653809 2.1084749698638916
   vertex -2.444338321685791 4.2337431907653809 1.319196343421936
   vertex -4.2337431907653809 2.444338321685791 1.319196343421936
  endloop
 endfacet
 facet normal -0.70710678118654746 0.70710678118654746 0
  outer loop
   vertex -2.444338321685791 4.2337431907653809 2.1084749698638916
   vertex -4.2337431907653809 2.444338321685791 1.319196343421936
   vertex -4.2337431907653809 2.444338321685791 2.1084749698638916
  endloop
 endfacet
 facet normal -0.96592829869478636 0.25880981778247092 0
  outer loop
   vertex -4.2337431907653809 2.444338321685791 2.1084749698638916
   vertex -4.2337431907653809 2.444338321685791 1.319196343421936
   vertex -4.888676643371582 0 1.319196343421936
  endloop
 endfacet
 facet normal 0 0 1
  outer loop
   vertex -4.888676643371582 0 1.319196343421936
   vertex -4.2337431907653809 2.444338321685791 1.319196343421936
   vertex -6.2993025779724121 0 1.319196343421936
  endloop
 endfacet
 facet normal -0 0 1
  outer loop
   vertex -4.888676643371582 0 1.319196343421936
   vertex -6.2993025779724121 0 1.319196343421936
   vertex -5.6760892868041992 -2.7316880226135254 1.319196343421936
  endloop
 endfacet
 facet normal -0.97491483917489496 -0.22241920764788398 0.0084114461227714574
  outer loop
   vertex -5.6760892868041992 -2.7316880226135254 1.319196343421936
   vertex -6.2993025779724121 0 1.319196343421936
   vertex -5.8178982734680176 -2.4126179218292236 -6.6799473762512207
  endloop
 endfacet
 facet normal -0.83120968051317268 -0.55590928833360564 -0.0074384249417180134
  outer loop
   vertex -5.6760892868041992 -2.7316880226135254 1.319196343421936
   vertex -5.8178982734680176 -2.4126179218292236 -6.6799473762512207
   vertex -4.4501886367797852 -4.4576520919799805 -6.6799473762512207
  endloop
 endfacet
 facet normal -0.81100813769709024 -0.54239858754003945 -0.21924774302981467
  outer loop
   vertex -4.4501886367797852 -4.4576520919799805 -6.6799473762512207
   vertex -5.8178982734680176 -2.4126179218292236 -6.6799473762512207
   vertex -3.9743821620941162 -3.9743821620941162 -9.6355438232421875
  endloop
 endfacet
 facet normal -0.54170131917189979 -0.81130761785979644 -0.21986275266648928
  outer loop
   vertex -4.4501886367797852 -4.4576520919799805 -6.6799473762512207
   vertex -3.9743821620941162 -3.9743821620941162 -9.6355438232421875
   vertex -2.1495249271392822 -5.1928195953369141 -9.6355438232421875
  endloop
 endfacet
 facet normal -0.44163492206317118 -0.66143788818994409 -0.60618356599390244
  outer loop
   vertex -2.1495249271392822 -5.1928195953369141 -9.6355438232421875
   vertex -3.9743821620941162 -3.9743821620941162 -9.6355438232421875
   vertex -1.8584434986114502 -3.2205557823181152 -11.999649047851563
  endloop
 endfacet
 facet normal -0.47593795635013159 -0.62007047833783224 -0.62369516881177789
  outer loop
   vertex -1.8584434986114502 -3.2205557823181152 -11.999649047851563
   vertex -3.9743821620941162 -3.9743821620941162 -9.6355438232421875
   vertex -2.6290631294250488 -2.6290631294250488 -11.999649047851563
  endloop
 endfacet
 facet normal 0 0 -1
  outer loop
   vertex -1.8584434986114502 -3.2205557823181152 -11.999649047851563
   vertex -2.6290631294250488 -2.6290631294250488 -11.999649047851563
   vertex 1.8584434986114502 -3.2205557823181152 -11.999649047851563
  endloop
 endfacet
 facet normal 0 0 -1
  outer loop
   vertex 1.8584434986114502 -3.2205557823181152 -11.999649047851563
   vertex -2.6290631294250488 -2.6290631294250488 -11.999649047851563
   vertex 2.6290631294250488 -2.6290631294250488 -11.999649047851563
  endloop
 endfacet
 facet normal 0.49019922346755579 -0.63865061174643833 -0.5931526931808585
  outer loop
   vertex 1.8584434986114502 -3.2205557823181152 -11.999649047851563
   vertex 2.6290631294250488 -2.6290631294250488 -11.999649047851563
   vertex 2.1495249271392822 -5.1928195953369141 -9.6355438232421875
  endloop
 endfacet
 facet normal 0.43588263722823628 -0.65282267471064825 -0.61953924972239882
  outer loop
   vertex 2.1495249271392822 -5.1928195953369141 -9.6355438232421875
   vertex 2.6290631294250488 -2.6290631294250488 -11.999649047851563
   vertex 3.9743821620941162 -3.9743821620941162 -9.6355438232421875
  endloop
 endfacet
 facet normal 0.54170131917189979 -0.81130761785979644 -0.21986275266648928
  outer loop
   vertex 2.1495249271392822 -5.1928195953369141 -9.6355438232421875
   vertex 3.9743821620941162 -3.9743821620941162 -9.6355438232421875
   vertex 4.4501886367797852 -4.4576520919799805 -6.6799473762512207
  endloop
 endfacet
 facet normal 0 0 -1
  outer loop
   vertex 0.43102455139160156 -1.0915557146072388 0
   vertex 0 -1.17365562915802 0
   vertex 0.83032864332199097 -0.83032864332199097 0
  endloop
 endfacet
 facet normal -0.8387796485398773 0.5444710287933785 0
  outer loop
   vertex 0.83032864332199097 -0.83032864332199097 0
   vertex 0.96840578317642212 -0.6176152229309082 -11.999649047851563
   vertex 0.83032864332199097 -0.83032864332199097 -11.999649047851563
  endloop
 endfacet
 facet normal -0.51450058927026132 0.85749002538837371 0
  outer loop
   vertex 0.83032864332199097 -0.83032864332199097 0
   vertex 0.83032864332199097 -0.83032864332199097 -11.999649047851563
   vertex 0.8209991455078125 -0.83592641353607178 -11.999649047851563
  endloop
 endfacet
 facet normal -0.55095498669595211 0.83453496098718472 3.9051008491898851e-05
  outer loop
   vertex 0.83032864332199097 -0.83032864332199097 0
   vertex 0.8209991455078125 -0.83592641353607178 -11.999649047851563
   vertex 0.62881070375442505 -0.96280807256698608 -11.999649047851563
  endloop
 endfacet
 facet normal -0.5474602023024947 0.83683171837010917 -4.4996020999105172e-05
  outer loop
   vertex 0.83032864332199097 -0.83032864332199097 0
   vertex 0.62881070375442505 -0.96280807256698608 -11.999649047851563
   vertex 0.43102455139160156 -1.0915557146072388 0
  endloop
 endfacet
 facet normal -0.54554419917068375 0.83808205251706536 0
  outer loop
   vertex 0.43102455139160156 -1.0915557146072388 0
   vertex 0.62881070375442505 -0.96280807256698608 -11.999649047851563
   vertex 0.43102455139160156 -1.0915557146072388 -11.999649047851563
  endloop
 endfacet
 facet normal 0 -0 -1
  outer loop
   vertex 0.43102455139160156 -1.0915557146072388 -11.999649047851563
   vertex 0.62881070375442505 -0.96280807256698608 -11.999649047851563
   vertex 3.2205557823181152 -1.8584434986114502 -11.999649047851563
  endloop
 endfacet
 facet normal 0 0 -1
  outer loop
   vertex 3.2205557823181152 -1.8584434986114502 -11.999649047851563
   vertex 0.62881070375442505 -0.96280807256698608 -11.999649047851563
   vertex 3.5918712615966797 -0.96280807256698608 -11.999649047851563
  endloop
 endfacet
 facet normal 0.71508248859375934 -0.29646124891303538 -0.63306221052869627
  outer loop
   vertex 3.2205557823181152 -1.8584434986114502 -11.999649047851563
   vertex 3.5918712615966797 -0.96280807256698608 -11.999649047851563
   vertex 5.1928195953369141 -2.1495249271392822 -9.6355438232421875
  endloop
 endfacet
 facet normal 0.66143788818994409 -0.44163492206317118 -0.60618356599390244
  outer loop
   vertex 3.2205557823181152 -1.8584434986114502 -11.999649047851563
   vertex 5.1928195953369141 -2.1495249271392822 -9.6355438232421875
   vertex 3.9743821620941162 -3.9743821620941162 -9.6355438232421875
  endloop
 endfacet
 facet normal 0.81131827811274404 -0.54170843690746306 -0.21980587113051644
  outer loop
   vertex 3.9743821620941162 -3.9743821620941162 -9.6355438232421875
   vertex 5.1928195953369141 -2.1495249271392822 -9.6355438232421875
   vertex 5.8178982734680176 -2.4126179218292236 -6.6799473762512207
  endloop
 endfacet
 facet normal 0.81100813769709024 -0.54239858754003945 -0.21924774302981467
  outer loop
   vertex 3.9743821620941162 -3.9743821620941162 -9.6355438232421875
   vertex 5.8178982734680176 -2.4126179218292236 -6.6799473762512207
   vertex 4.4501886367797852 -4.4576520919799805 -6.6799473762512207
  endloop
 endfacet
 facet normal 0.83120968051317268 -0.55590928833360564 -0.0074384249417180134
  outer loop
   vertex 4.4501886367797852 -4.4576520919799805 -6.6799473762512207
   vertex 5.8178982734680176 -2.4126179218292236 -6.6799473762512207
   vertex 5.6760892868041992 -2.7316880226135254 1.319196343421936
  endloop
 endfacet
 facet normal 0.78175710548392474 -0.62340965323289543 0.014704838708290809
  outer loop
   vertex 4.4501886367797852 -4.4576520919799805 -6.6799473762512207
   vertex 5.6760892868041992 -2.7316880226135254 1.319196343421936
   vertex 3.927734375 -4.9241290092468262 1.319196343421936
  endloop
 endfacet
 facet normal 0 0 1
  outer loop
   vertex 3.927734375 -4.9241290092468262 1.319196343421936
   vertex 5.6760892868041992 -2.7316880226135254 1.319196343421936
   vertex 2.444338321685791 -4.2337431907653809 1.319196343421936
  endloop
 endfacet
 facet normal 0 0 1
  outer loop
   vertex 2.444338321685791 -4.2337431907653809 1.319196343421936
   vertex 5.6760892868041992 -2.7316880226135254 1.319196343421936
   vertex 4.2337431907653809 -2.444338321685791 1.319196343421936
  endloop
 endfacet
 facet normal 0 -0 1
  outer loop
   vertex 4.2337431907653809 -2.444338321685791 1.319196343421936
   vertex 5.6760892868041992 -2.7316880226135254 1.319196343421936
   vertex 6.2993025779724121 0 1.319196343421936
  endloop
 endfacet
 facet normal 0 0 1
  outer loop
   vertex 4.2337431907653809 -2.444338321685791 1.319196343421936
   vertex 6.2993025779724121 0 1.319196343421936
   vertex 4.888676643371582 0 1.319196343421936
  endloop
 endfacet
 facet normal 0 0 1
  outer loop
   vertex 4.888676643371582 0 1.319196343421936
   vertex 6.2993025779724121 0 1.319196343421936
   vertex 5.6760892868041992 2.7316880226135254 1.319196343421936
  endloop
 endfacet
 facet normal 0 0 1
  outer loop
   vertex 4.888676643371582 0 1.319196343421936
   vertex 5.6760892868041992 2.7316880226135254 1.319196343421936
   vertex 4.2337431907653809 2.444338321685791 1.319196343421936
  endloop
 endfacet
 facet normal 0.10536709909177924 0.79800134227569852 -0.59337309692567519
  outer loop
   vertex 2.1495249271392822 5.1928195953369141 -9.6355438232421875
   vertex 0.96094214916229248 3.5918712615966797 -11.999649047851563
   vertex 0 3.7187528610229492 -11.999649047851563
  endloop
 endfacet
 facet normal 0.15307664634803897 0.77006223546723807 -0.61933165093513287
  outer loop
   vertex 2.1495249271392822 5.1928195953369141 -9.6355438232421875
   vertex 0 3.7187528610229492 -11.999649047851563
   vertex 0 5.620112419128418 -9.6355438232421875
  endloop
 endfacet
 facet normal 0.18845565700117636 0.94803869812262875 -0.25633394665203069
  outer loop
   vertex 2.1495249271392822 5.1928195953369141 -9.6355438232421875
   vertex 0 5.620112419128418 -9.6355438232421875
   vertex 1.4012962579727173 6.1407003402709961 -6.6799473762512207
  endloop
 endfacet
 facet normal 0.42705897656970865 0.88686791239447482 -0.17631204297012518
  outer loop
   vertex 2.1495249271392822 5.1928195953369141 -9.6355438232421875
   vertex 1.4012962579727173 6.1407003402709961 -6.6799473762512207
   vertex 3.927734375 4.9241290092468262 -6.6799473762512207
  endloop
 endfacet
 facet normal 0.43385561764388342 0.90098240994974166 0
  outer loop
   vertex 3.927734375 4.9241290092468262 -6.6799473762512207
   vertex 1.4012962579727173 6.1407003402709961 -6.6799473762512207
   vertex 3.927734375 4.9241290092468262 1.319196343421936
  endloop
 endfacet
 facet normal 0.78184163975467458 0.62347706481130616 0
  outer loop
   vertex 3.927734375 4.9241290092468262 -6.6799473762512207
   vertex 3.927734375 4.9241290092468262 1.319196343421936
   vertex 5.6760892868041992 2.7316880226135254 1.319196343421936
  endloop
 endfacet
 facet normal 0 0 1
  outer loop
   vertex 5.6760892868041992 2.7316880226135254 1.319196343421936
   vertex 3.927734375 4.9241290092468262 1.319196343421936
   vertex 2.444338321685791 4.2337431907653809 1.319196343421936
  endloop
 endfacet
 facet normal 0 0 1
  outer loop
   vertex 5.6760892868041992 2.7316880226135254 1.319196343421936
   vertex 2.444338321685791 4.2337431907653809 1.319196343421936
   vertex 4.2337431907653809 2.444338321685791 1.319196343421936
  endloop
 endfacet
 facet normal 0.70710678118654746 0.70710678118654746 0
  outer loop
   vertex 4.2337431907653809 2.444338321685791 1.319196343421936
   vertex 2.444338321685791 4.2337431907653809 1.319196343421936
   vertex 4.2337431907653809 2.444338321685791 2.1084749698638916
  endloop
 endfacet
 facet normal 0.70710678118654746 0.70710678118654746 -0
  outer loop
   vertex 4.2337431907653809 2.444338321685791 2.1084749698638916
   vertex 2.444338321685791 4.2337431907653809 1.319196343421936
   vertex 2.444338321685791 4.2337431907653809 2.1084749698638916
  endloop
 endfacet
 facet normal 0 0 1
  outer loop
   vertex 2.444338321685791 4.2337431907653809 2.1084749698638916
   vertex 0 4.888676643371582 2.1084749698638916
   vertex -2.444338321685791 4.2337431907653809 2.1084749698638916
  endloop
 endfacet
 facet normal -0 0 1
  outer loop
   vertex 2.444338321685791 4.2337431907653809 2.1084749698638916
   vertex -2.444338321685791 4.2337431907653809 2.1084749698638916
   vertex -4.2337431907653809 2.444338321685791 2.1084749698638916
  endloop
 endfacet
 facet normal 0 0 1
  outer loop
   vertex 2.444338321685791 4.2337431907653809 2.1084749698638916
   vertex -4.2337431907653809 2.444338321685791 2.1084749698638916
   vertex 4.2337431907653809 2.444338321685791 2.1084749698638916
  endloop
 endfacet
 facet normal -0 0 1
  outer loop
   vertex 4.2337431907653809 2.444338321685791 2.1084749698638916
   vertex -4.2337431907653809 2.444338321685791 2.1084749698638916
   vertex -4.888676643371582 0 2.1084749698638916
  endloop
 endfacet
 facet normal -0.96592829869478636 0.25880981778247092 0
  outer loop
   vertex -4.888676643371582 0 2.1084749698638916
   vertex -4.2337431907653809 2.444338321685791 2.1084749698638916
   vertex -4.888676643371582 0 1.319196343421936
  endloop
 endfacet
 facet normal -0.96592829869478636 -0.25880981778247092 0
  outer loop
   vertex -4.888676643371582 0 2.1084749698638916
   vertex -4.888676643371582 0 1.319196343421936
   vertex -4.2337431907653809 -2.444338321685791 1.319196343421936
  endloop
 endfacet
 facet normal 0 0 1
  outer loop
   vertex -4.2337431907653809 -2.444338321685791 1.319196343421936
   vertex -4.888676643371582 0 1.319196343421936
   vertex -5.6760892868041992 -2.7316880226135254 1.319196343421936
  endloop
 endfacet
 facet normal -0 0 1
  outer loop
   vertex -4.2337431907653809 -2.444338321685791 1.319196343421936
   vertex -5.6760892868041992 -2.7316880226135254 1.319196343421936
   vertex -2.444338321685791 -4.2337431907653809 1.319196343421936
  endloop
 endfacet
 facet normal 0 0 1
  outer loop
   vertex -2.444338321685791 -4.2337431907653809 1.319196343421936
   vertex -5.6760892868041992 -2.7316880226135254 1.319196343421936
   vertex -3.927734375 -4.9241290092468262 1.319196343421936
  endloop
 endfacet
 facet normal -0.78175710548392474 -0.62340965323289543 0.014704838708290809
  outer loop
   vertex -3.927734375 -4.9241290092468262 1.319196343421936
   vertex -5.6760892868041992 -2.7316880226135254 1.319196343421936
   vertex -4.4501886367797852 -4.4576520919799805 -6.6799473762512207
  endloop
 endfacet
 facet normal -0.59892334880396669 -0.80077048573150034 -0.0075796727356123991
  outer loop
   vertex -3.927734375 -4.9241290092468262 1.319196343421936
   vertex -4.4501886367797852 -4.4576520919799805 -6.6799473762512207
   vertex -3.0843443870544434 -5.4913644790649414 -5.3962035179138184
  endloop
 endfacet
 facet normal -0.55275468228472735 -0.82951028912078406 -0.079843230489901496
  outer loop
   vertex -3.0843443870544434 -5.4913644790649414 -5.3962035179138184
   vertex -4.4501886367797852 -4.4576520919799805 -6.6799473762512207
   vertex -2.4032883644104004 -5.8216300010681152 -6.6799473762512207
  endloop
 endfacet
 facet normal -0.5410398301967817 -0.81192999418359268 -0.21919303521250111
  outer loop
   vertex -2.4032883644104004 -5.8216300010681152 -6.6799473762512207
   vertex -4.4501886367797852 -4.4576520919799805 -6.6799473762512207
   vertex -2.1495249271392822 -5.1928195953369141 -9.6355438232421875
  endloop
 endfacet
 facet normal -0.19019788198764401 -0.95680307662041608 -0.21989233332956526
  outer loop
   vertex -2.4032883644104004 -5.8216300010681152 -6.6799473762512207
   vertex -2.1495249271392822 -5.1928195953369141 -9.6355438232421875
   vertex 0 -5.620112419128418 -9.6355438232421875
  endloop
 endfacet
 facet normal -0.15307664634803897 -0.77006223546723807 -0.61933165093513287
  outer loop
   vertex 0 -5.620112419128418 -9.6355438232421875
   vertex -2.1495249271392822 -5.1928195953369141 -9.6355438232421875
   vertex 0 -3.7187528610229492 -11.999649047851563
  endloop
 endfacet
 facet normal -0.10536709909177924 -0.79800134227569852 -0.59337309692567519
  outer loop
   vertex 0 -3.7187528610229492 -11.999649047851563
   vertex -2.1495249271392822 -5.1928195953369141 -9.6355438232421875
   vertex -0.96094214916229248 -3.5918712615966797 -11.999649047851563
  endloop
 endfacet
 facet normal -0.29591313735889835 -0.71524742414550058 -0.63313232218205395
  outer loop
   vertex -0.96094214916229248 -3.5918712615966797 -11.999649047851563
   vertex -2.1495249271392822 -5.1928195953369141 -9.6355438232421875
   vertex -1.8584434986114502 -3.2205557823181152 -11.999649047851563
  endloop
 endfacet
 facet normal 0 0 -1
  outer loop
   vertex -0.96094214916229248 -3.5918712615966797 -11.999649047851563
   vertex -1.8584434986114502 -3.2205557823181152 -11.999649047851563
   vertex 0.96094214916229248 -3.5918712615966797 -11.999649047851563
  endloop
 endfacet
 facet normal 0 0 -1
  outer loop
   vertex 0.96094214916229248 -3.5918712615966797 -11.999649047851563
   vertex -1.8584434986114502 -3.2205557823181152 -11.999649047851563
   vertex 1.8584434986114502 -3.2205557823181152 -11.999649047851563
  endloop
 endfacet
 facet normal 0.29591313735889835 -0.71524742414550058 -0.63313232218205395
  outer loop
   vertex 0.96094214916229248 -3.5918712615966797 -11.999649047851563
   vertex 1.8584434986114502 -3.2205557823181152 -11.999649047851563
   vertex 2.1495249271392822 -5.1928195953369141 -9.6355438232421875
  endloop
 endfacet
 facet normal 0.5410398301967817 -0.81192999418359268 -0.21919303521250111
  outer loop
   vertex 2.1495249271392822 -5.1928195953369141 -9.6355438232421875
   vertex 4.4501886367797852 -4.4576520919799805 -6.6799473762512207
   vertex 2.4032883644104004 -5.8216300010681152 -6.6799473762512207
  endloop
 endfacet
 facet normal 0.55274151808147121 -0.82949053380726245 -0.080139057351166929
  outer loop
   vertex 2.4032883644104004 -5.8216300010681152 -6.6799473762512207
   vertex 4.4501886367797852 -4.4576520919799805 -6.6799473762512207
   vertex 3.0806126594543457 -5.4932303428649902 -5.4073987007141113
  endloop
 endfacet
 facet normal 0.5998274153003752 -0.80011013464263103 -0.0055537641489422562
  outer loop
   vertex 3.0806126594543457 -5.4932303428649902 -5.4073987007141113
   vertex 4.4501886367797852 -4.4576520919799805 -6.6799473762512207
   vertex 3.1365897655487061 -5.461510181427002 -3.9314663410186768
  endloop
 endfacet
 facet normal 0.59681392050567772 -0.802341674521867 -0.0078090726779113896
  outer loop
   vertex 3.1365897655487061 -5.461510181427002 -3.9314663410186768
   vertex 4.4501886367797852 -4.4576520919799805 -6.6799473762512207
   vertex 3.927734375 -4.9241290092468262 1.319196343421936
  endloop
 endfacet
 facet normal 0.43369942888453272 -0.90065805475164362 0.026830463958257667
  outer loop
   vertex 3.1365897655487061 -5.461510181427002 -3.9314663410186768
   vertex 3.927734375 -4.9241290092468262 1.319196343421936
   vertex 1.4012962579727173 -6.1407003402709961 1.319196343421936
  endloop
 endfacet
 facet normal 0 0 1
  outer loop
   vertex 1.4012962579727173 -6.1407003402709961 1.319196343421936
   vertex 3.927734375 -4.9241290092468262 1.319196343421936
   vertex -1.4012962579727173 -6.1407003402709961 1.319196343421936
  endloop
 endfacet
 facet normal 0 0 1
  outer loop
   vertex 3.927734375 -4.9241290092468262 1.319196343421936
   vertex 2.444338321685791 -4.2337431907653809 1.319196343421936
   vertex 0 -4.888676643371582 1.319196343421936
  endloop
 endfacet
 facet normal 0.25880981778247092 -0.96592829869478636 0
  outer loop
   vertex 0 -4.888676643371582 1.319196343421936
   vertex 2.444338321685791 -4.2337431907653809 1.319196343421936
   vertex 0 -4.888676643371582 2.1084749698638916
  endloop
 endfacet
 facet normal 0.25880981778247092 -0.96592829869478636 0
  outer loop
   vertex 0 -4.888676643371582 2.1084749698638916
   vertex 2.444338321685791 -4.2337431907653809 1.319196343421936
   vertex 2.444338321685791 -4.2337431907653809 2.1084749698638916
  endloop
 endfacet
 facet normal 0.70710678118654746 -0.70710678118654746 0
  outer loop
   vertex 2.444338321685791 -4.2337431907653809 2.1084749698638916
   vertex 2.444338321685791 -4.2337431907653809 1.319196343421936
   vertex 4.2337431907653809 -2.444338321685791 1.319196343421936
  endloop
 endfacet
 facet normal 0.70710678118654746 -0.70710678118654746 0
  outer loop
   vertex 2.444338321685791 -4.2337431907653809 2.1084749698638916
   vertex 4.2337431907653809 -2.444338321685791 1.319196343421936
   vertex 4.2337431907653809 -2.444338321685791 2.1084749698638916
  endloop
 endfacet
 facet normal 0.96592829869478636 -0.25880981778247092 0
  outer loop
   vertex 4.2337431907653809 -2.444338321685791 2.1084749698638916
   vertex 4.2337431907653809 -2.444338321685791 1.319196343421936
   vertex 4.888676643371582 0 1.319196343421936
  endloop
 endfacet
 facet normal 0.96592829869478636 -0.25880981778247092 0
  outer loop
   vertex 4.2337431907653809 -2.444338321685791 2.1084749698638916
   vertex 4.888676643371582 0 1.319196343421936
   vertex 4.888676643371582 0 2.1084749698638916
  endloop
 endfacet
 facet normal 0.96592829869478636 0.25880981778247092 -0
  outer loop
   vertex 4.888676643371582 0 2.1084749698638916
   vertex 4.888676643371582 0 1.319196343421936
   vertex 4.2337431907653809 2.444338321685791 1.319196343421936
  endloop
 endfacet
 facet normal 0.96592829869478636 0.25880981778247092 -0
  outer loop
   vertex 4.888676643371582 0 2.1084749698638916
   vertex 4.2337431907653809 2.444338321685791 1.319196343421936
   vertex 4.2337431907653809 2.444338321685791 2.1084749698638916
  endloop
 endfacet
 facet normal 0 0 1
  outer loop
   vertex 4.888676643371582 0 2.1084749698638916
   vertex 4.2337431907653809 2.444338321685791 2.1084749698638916
   vertex -4.888676643371582 0 2.1084749698638916
  endloop
 endfacet
 facet normal -0 0 1
  outer loop
   vertex 4.888676643371582 0 2.1084749698638916
   vertex -4.888676643371582 0 2.1084749698638916
   vertex -4.2337431907653809 -2.444338321685791 2.1084749698638916
  endloop
 endfacet
 facet normal -0.96592829869478636 -0.25880981778247092 0
  outer loop
   vertex -4.2337431907653809 -2.444338321685791 2.1084749698638916
   vertex -4.888676643371582 0 2.1084749698638916
   vertex -4.2337431907653809 -2.444338321685791 1.319196343421936
  endloop
 endfacet
 facet normal -0.70710678118654746 -0.70710678118654746 0
  outer loop
   vertex -4.2337431907653809 -2.444338321685791 2.1084749698638916
   vertex -4.2337431907653809 -2.444338321685791 1.319196343421936
   vertex -2.444338321685791 -4.2337431907653809 1.319196343421936
  endloop
 endfacet
 facet normal -0.70710678118654746 -0.70710678118654746 0
  outer loop
   vertex -4.2337431907653809 -2.444338321685791 2.1084749698638916
   vertex -2.444338321685791 -4.2337431907653809 1.319196343421936
   vertex -2.444338321685791 -4.2337431907653809 2.1084749698638916
  endloop
 endfacet
 facet normal -0.58401219130097504 -0.81173080558602095 -0.0047811791958695385
  outer loop
   vertex -3.927734375 -4.9241290092468262 1.319196343421936
   vertex -3.0843443870544434 -5.4913644790649414 -5.3962035179138184
   vertex -3.1328580379486084 -5.4652419090270996 -3.9053435325622559
  endloop
 endfacet
 facet normal -0.99872521782081558 0.03805203616500951 -0.033165974016467432
  outer loop
   vertex -3.1328580379486084 -5.4652419090270996 -3.9053435325622559
   vertex -3.0843443870544434 -5.4913644790649414 -5.3962035179138184
   vertex -4.9987649917602539 -54.999477386474609 -4.5490813255310059
  endloop
 endfacet
 facet normal -0.9654121198639446 0.032905756225038101 -0.2586438671746597
  outer loop
   vertex -4.9987649917602539 -54.999477386474609 -4.5490813255310059
   vertex -3.0843443870544434 -5.4913644790649414 -5.3962035179138184
   vertex -4.3289046287536621 -54.999477386474609 -7.0493969917297363
  endloop
 endfacet
 facet normal -0.87866596850403589 0.037980584625094294 -0.47592393403190031
  outer loop
   vertex -4.3289046287536621 -54.999477386474609 -7.0493969917297363
   vertex -3.0843443870544434 -5.4913644790649414 -5.3962035179138184
   vertex -2.4032883644104004 -5.8216300010681152 -6.6799473762512207
  endloop
 endfacet
 facet normal -0.70672212755023867 0.032981797571087476 -0.70672203549899582
  outer loop
   vertex -4.3289046287536621 -54.999477386474609 -7.0493969917297363
   vertex -2.4032883644104004 -5.8216300010681152 -6.6799473762512207
   vertex -2.4984495639801025 -54.999477386474609 -8.879852294921875
  endloop
 endfacet
 facet normal -0.59321258463491355 0.037122228381061412 -0.80418951099276947
  outer loop
   vertex -2.4984495639801025 -54.999477386474609 -8.879852294921875
   vertex -2.4032883644104004 -5.8216300010681152 -6.6799473762512207
   vertex -1.3359894752502441 -6.1071138381958008 -7.4804215431213379
  endloop
 endfacet
 facet normal -0.55020276148486291 -0.67372789074992256 -0.49332306907349416
  outer loop
   vertex -1.3359894752502441 -6.1071138381958008 -7.4804215431213379
   vertex -2.4032883644104004 -5.8216300010681152 -6.6799473762512207
   vertex 0 -5.620112419128418 -9.6355438232421875
  endloop
 endfacet
 facet normal -0.13854919379056402 -0.94407055576900922 -0.29922384034361116
  outer loop
   vertex -1.3359894752502441 -6.1071138381958008 -7.4804215431213379
   vertex 0 -5.620112419128418 -9.6355438232421875
   vertex 0 -6.2097387313842773 -7.7752346992492676
  endloop
 endfacet
 facet normal 0 0 -1
  outer loop
   vertex 0 -3.7187528610229492 -11.999649047851563
   vertex -0.96094214916229248 -3.5918712615966797 -11.999649047851563
   vertex 0.96094214916229248 -3.5918712615966797 -11.999649047851563
  endloop
 endfacet
 facet normal 0.10235035183610794 -0.77515390336846135 -0.62342668500126208
  outer loop
   vertex 0 -3.7187528610229492 -11.999649047851563
   vertex 0.96094214916229248 -3.5918712615966797 -11.999649047851563
   vertex 0 -5.620112419128418 -9.6355438232421875
  endloop
 endfacet
 facet normal 0.15506187920682152 -0.78004908120516525 -0.6062006635824696
  outer loop
   vertex 0 -5.620112419128418 -9.6355438232421875
   vertex 0.96094214916229248 -3.5918712615966797 -11.999649047851563
   vertex 2.1495249271392822 -5.1928195953369141 -9.6355438232421875
  endloop
 endfacet
 facet normal 0.18618119063932073 -0.93659684403913013 -0.2968550420458887
  outer loop
   vertex 0 -5.620112419128418 -9.6355438232421875
   vertex 2.1495249271392822 -5.1928195953369141 -9.6355438232421875
   vertex 0 -6.2097387313842773 -7.7752346992492676
  endloop
 endfacet
 facet normal 0.14620953287465016 -0.92933044974206991 -0.33906885389073815
  outer loop
   vertex 0 -6.2097387313842773 -7.7752346992492676
   vertex 2.1495249271392822 -5.1928195953369141 -9.6355438232421875
   vertex 1.3359894752502441 -6.1071138381958008 -7.4804215431213379
  endloop
 endfacet
 facet normal 0.40473547744576049 -0.88672451214538694 -0.22340284881191141
  outer loop
   vertex 1.3359894752502441 -6.1071138381958008 -7.4804215431213379
   vertex 2.1495249271392822 -5.1928195953369141 -9.6355438232421875
   vertex 2.4032883644104004 -5.8216300010681152 -6.6799473762512207
  endloop
 endfacet
 facet normal 0.59321258463491355 0.037122228381061412 -0.80418951099276947
  outer loop
   vertex 1.3359894752502441 -6.1071138381958008 -7.4804215431213379
   vertex 2.4032883644104004 -5.8216300010681152 -6.6799473762512207
   vertex 2.4984495639801025 -54.999477386474609 -8.879852294921875
  endloop
 endfacet
 facet normal 0.70672212755023867 0.032981797571087476 -0.70672203549899582
  outer loop
   vertex 2.4984495639801025 -54.999477386474609 -8.879852294921875
   vertex 2.4032883644104004 -5.8216300010681152 -6.6799473762512207
   vertex 4.3289046287536621 -54.999477386474609 -7.0493969917297363
  endloop
 endfacet
 facet normal 0.87801389500752913 0.037964091192392524 -0.47712716119881843
  outer loop
   vertex 4.3289046287536621 -54.999477386474609 -7.0493969917297363
   vertex 2.4032883644104004 -5.8216300010681152 -6.6799473762512207
   vertex 3.0806126594543457 -5.4932303428649902 -5.4073987007141113
  endloop
 endfacet
 facet normal 0.96541162661810853 0.032921262442685791 -0.25864373502901133
  outer loop
   vertex 4.3289046287536621 -54.999477386474609 -7.0493969917297363
   vertex 3.0806126594543457 -5.4932303428649902 -5.4073987007141113
   vertex 4.9987649917602539 -54.999477386474609 -4.5490813255310059
  endloop
 endfacet
 facet normal 0.99852786272249239 0.038017870813448595 -0.038687838730838586
  outer loop
   vertex 4.9987649917602539 -54.999477386474609 -4.5490813255310059
   vertex 3.0806126594543457 -5.4932303428649902 -5.4073987007141113
   vertex 3.1365897655487061 -5.461510181427002 -3.9314663410186768
  endloop
 endfacet
 facet normal 0.96540700965063886 0.033065860617865907 0.25864252275875149
  outer loop
   vertex 4.9987649917602539 -54.999477386474609 -4.5490813255310059
   vertex 3.1365897655487061 -5.461510181427002 -3.9314663410186768
   vertex 4.3289046287536621 -54.999477386474609 -2.0487658977508545
  endloop
 endfacet
 facet normal 0.91054492315208913 0.037562386940143348 0.41170014574847424
  outer loop
   vertex 4.3289046287536621 -54.999477386474609 -2.0487658977508545
   vertex 3.1365897655487061 -5.461510181427002 -3.9314663410186768
   vertex 2.5432314872741699 -5.7619209289550781 -2.5917448997497559
  endloop
 endfacet
 facet normal 0.64084592227601611 -0.7592198313061993 0.11358587787920107
  outer loop
   vertex 2.5432314872741699 -5.7619209289550781 -2.5917448997497559
   vertex 3.1365897655487061 -5.461510181427002 -3.9314663410186768
   vertex 1.4012962579727173 -6.1407003402709961 1.319196343421936
  endloop
 endfacet
 facet normal 0.31858048839163344 -0.94789503327031155 0.0012158608568614746
  outer loop
   vertex 2.5432314872741699 -5.7619209289550781 -2.5917448997497559
   vertex 1.4012962579727173 -6.1407003402709961 1.319196343421936
   vertex 1.4348825216293335 -6.1332368850708008 -1.6625232696533203
  endloop
 endfacet
 facet normal 0.1146851173725232 -0.9934011759933119 -0.0011947335918717622
  outer loop
   vertex 1.4348825216293335 -6.1332368850708008 -1.6625232696533203
   vertex 1.4012962579727173 -6.1407003402709961 1.319196343421936
   vertex 0 -6.2993025779724121 -1.319196343421936
  endloop
 endfacet
 facet normal 0 -0.99819808343770278 0.060004884978614587
  outer loop
   vertex 0 -6.2993025779724121 -1.319196343421936
   vertex 1.4012962579727173 -6.1407003402709961 1.319196343421936
   vertex -1.4012962579727173 -6.1407003402709961 1.319196343421936
  endloop
 endfacet
 facet normal -0.11332743541077611 -0.99355758608239064 -0.00046424276984566597
  outer loop
   vertex 0 -6.2993025779724121 -1.319196343421936
   vertex -1.4012962579727173 -6.1407003402709961 1.319196343421936
   vertex -1.4218212366104126 -6.1369686126708984 -1.6569255590438843
  endloop
 endfacet
 facet normal 0 0 1
  outer loop
   vertex 4.2337431907653809 -2.444338321685791 2.1084749698638916
   vertex 4.888676643371582 0 2.1084749698638916
   vertex -4.2337431907653809 -2.444338321685791 2.1084749698638916
  endloop
 endfacet
 facet normal -0 0 1
  outer loop
   vertex 4.2337431907653809 -2.444338321685791 2.1084749698638916
   vertex -4.2337431907653809 -2.444338321685791 2.1084749698638916
   vertex -2.444338321685791 -4.2337431907653809 2.1084749698638916
  endloop
 endfacet
 facet normal 0 0 1
  outer loop
   vertex 4.2337431907653809 -2.444338321685791 2.1084749698638916
   vertex -2.444338321685791 -4.2337431907653809 2.1084749698638916
   vertex 2.444338321685791 -4.2337431907653809 2.1084749698638916
  endloop
 endfacet
 facet normal -0 0 1
  outer loop
   vertex 2.444338321685791 -4.2337431907653809 2.1084749698638916
   vertex -2.444338321685791 -4.2337431907653809 2.1084749698638916
   vertex 0 -4.888676643371582 2.1084749698638916
  endloop
 endfacet
 facet normal -0.25880981778247092 -0.96592829869478636 0
  outer loop
   vertex 0 -4.888676643371582 2.1084749698638916
   vertex -2.444338321685791 -4.2337431907653809 2.1084749698638916
   vertex 0 -4.888676643371582 1.319196343421936
  endloop
 endfacet
 facet normal -0.25880981778247092 -0.96592829869478636 -0
  outer loop
   vertex 0 -4.888676643371582 1.319196343421936
   vertex -2.444338321685791 -4.2337431907653809 2.1084749698638916
   vertex -2.444338321685791 -4.2337431907653809 1.319196343421936
  endloop
 endfacet
 facet normal 0 0 1
  outer loop
   vertex 0 -4.888676643371582 1.319196343421936
   vertex -2.444338321685791 -4.2337431907653809 1.319196343421936
   vertex -3.927734375 -4.9241290092468262 1.319196343421936
  endloop
 endfacet
 facet normal 0 0 1
  outer loop
   vertex 0 -4.888676643371582 1.319196343421936
   vertex -3.927734375 -4.9241290092468262 1.319196343421936
   vertex 3.927734375 -4.9241290092468262 1.319196343421936
  endloop
 endfacet
 facet normal -0 0 1
  outer loop
   vertex 3.927734375 -4.9241290092468262 1.319196343421936
   vertex -3.927734375 -4.9241290092468262 1.319196343421936
   vertex -1.4012962579727173 -6.1407003402709961 1.319196343421936
  endloop
 endfacet
 facet normal -0.43385486524425149 -0.90098084745105311 0.0018623722169490754
  outer loop
   vertex -1.4012962579727173 -6.1407003402709961 1.319196343421936
   vertex -3.927734375 -4.9241290092468262 1.319196343421936
   vertex -1.4218212366104126 -6.1369686126708984 -1.6569255590438843
  endloop
 endfacet
 facet normal -0.36632641143742328 -0.92787363976982196 0.069681194763598672
  outer loop
   vertex -1.4218212366104126 -6.1369686126708984 -1.6569255590438843
   vertex -3.927734375 -4.9241290092468262 1.319196343421936
   vertex -2.5264382362365723 -5.7693848609924316 -2.5693540573120117
  endloop
 endfacet
 facet normal -0.47950086372100864 -0.87735848793505733 0.017916621866764421
  outer loop
   vertex -2.5264382362365723 -5.7693848609924316 -2.5693540573120117
   vertex -3.927734375 -4.9241290092468262 1.319196343421936
   vertex -3.1328580379486084 -5.4652419090270996 -3.9053435325622559
  endloop
 endfacet
 facet normal -0.9066861645975306 0.037639224285213532 0.42012318160585638
  outer loop
   vertex -2.5264382362365723 -5.7693848609924316 -2.5693540573120117
   vertex -3.1328580379486084 -5.4652419090270996 -3.9053435325622559
   vertex -4.3289046287536621 -54.999477386474609 -2.0487658977508545
  endloop
 endfacet
 facet normal -0.96540896079728611 0.033004748618698301 0.25864304549111833
  outer loop
   vertex -4.3289046287536621 -54.999477386474609 -2.0487658977508545
   vertex -3.1328580379486084 -5.4652419090270996 -3.9053435325622559
   vertex -4.9987649917602539 -54.999477386474609 -4.5490813255310059
  endloop
 endfacet
 facet normal 0 -1 0
  outer loop
   vertex -4.3289046287536621 -54.999477386474609 -2.0487658977508545
   vertex -4.9987649917602539 -54.999477386474609 -4.5490813255310059
   vertex -4.3289046287536621 -54.999477386474609 -7.0493969917297363
  endloop
 endfacet
 facet normal 0 -1 0
  outer loop
   vertex -4.3289046287536621 -54.999477386474609 -2.0487658977508545
   vertex -4.3289046287536621 -54.999477386474609 -7.0493969917297363
   vertex -2.4984495639801025 -54.999477386474609 -8.879852294921875
  endloop
 endfacet
 facet normal 0 -1 0
  outer loop
   vertex -4.3289046287536621 -54.999477386474609 -2.0487658977508545
   vertex -2.4984495639801025 -54.999477386474609 -8.879852294921875
   vertex -2.4984495639801025 -54.999477386474609 -0.2183111310005188
  endloop
 endfacet
 facet normal 0 -1 0
  outer loop
   vertex -2.4984495639801025 -54.999477386474609 -0.2183111310005188
   vertex -2.4984495639801025 -54.999477386474609 -8.879852294921875
   vertex 0 -54.999477386474609 -9.5497121810913086
  endloop
 endfacet
 facet normal -0.21294974268818515 0.033013275600744588 -0.97650526405296212
  outer loop
   vertex -2.4984495639801025 -54.999477386474609 -8.879852294921875
   vertex -1.3359894752502441 -6.1071138381958008 -7.4804215431213379
   vertex 0 -6.2097387313842773 -7.7752346992492676
  endloop
 endfacet
 facet normal -0.2588045253678849 0.03510754669724156 -0.96529149888207599
  outer loop
   vertex -2.4984495639801025 -54.999477386474609 -8.879852294921875
   vertex 0 -6.2097387313842773 -7.7752346992492676
   vertex 0 -54.999477386474609 -9.5497121810913086
  endloop
 endfacet
 facet normal 0.21274800546704623 0.035513798334281262 -0.9764614976012449
  outer loop
   vertex 0 -54.999477386474609 -9.5497121810913086
   vertex 0 -6.2097387313842773 -7.7752346992492676
   vertex 1.3359894752502441 -6.1071138381958008 -7.4804215431213379
  endloop
 endfacet
 facet normal 0.25881633793679126 0.033784088317145931 -0.96533555751022038
  outer loop
   vertex 0 -54.999477386474609 -9.5497121810913086
   vertex 1.3359894752502441 -6.1071138381958008 -7.4804215431213379
   vertex 2.4984495639801025 -54.999477386474609 -8.879852294921875
  endloop
 endfacet
 facet normal -0 -1 0
  outer loop
   vertex 0 -54.999477386474609 -9.5497121810913086
   vertex 2.4984495639801025 -54.999477386474609 -8.879852294921875
   vertex 0 -54.999477386474609 0.44968360662460327
  endloop
 endfacet
 facet normal 0 -1 0
  outer loop
   vertex 0 -54.999477386474609 0.44968360662460327
   vertex 2.4984495639801025 -54.999477386474609 -8.879852294921875
   vertex 2.4984495639801025 -54.999477386474609 -0.2183111310005188
  endloop
 endfacet
 facet normal 0 -1 0
  outer loop
   vertex 2.4984495639801025 -54.999477386474609 -0.2183111310005188
   vertex 2.4984495639801025 -54.999477386474609 -8.879852294921875
   vertex 4.3289046287536621 -54.999477386474609 -7.0493969917297363
  endloop
 endfacet
 facet normal -0 -1 0
  outer loop
   vertex 4.3289046287536621 -54.999477386474609 -7.0493969917297363
   vertex 4.9987649917602539 -54.999477386474609 -4.5490813255310059
   vertex 4.3289046287536621 -54.999477386474609 -2.0487658977508545
  endloop
 endfacet
 facet normal -0 -1 -0
  outer loop
   vertex 4.3289046287536621 -54.999477386474609 -7.0493969917297363
   vertex 4.3289046287536621 -54.999477386474609 -2.0487658977508545
   vertex 2.4984495639801025 -54.999477386474609 -0.2183111310005188
  endloop
 endfacet
 facet normal 0.7067116508510618 0.033423382098008401 0.7067117659134432
  outer loop
   vertex 2.4984495639801025 -54.999477386474609 -0.2183111310005188
   vertex 4.3289046287536621 -54.999477386474609 -2.0487658977508545
   vertex 2.5432314872741699 -5.7619209289550781 -2.5917448997497559
  endloop
 endfacet
 facet normal 0.63480033140763215 0.036626649604190403 0.77180763651542872
  outer loop
   vertex 2.4984495639801025 -54.999477386474609 -0.2183111310005188
   vertex 2.5432314872741699 -5.7619209289550781 -2.5917448997497559
   vertex 1.4348825216293335 -6.1332368850708008 -1.6625232696533203
  endloop
 endfacet
 facet normal 0.22887635109542115 0.033734070219162332 0.97287081794845398
  outer loop
   vertex 2.4984495639801025 -54.999477386474609 -0.2183111310005188
   vertex 1.4348825216293335 -6.1332368850708008 -1.6625232696533203
   vertex 0 -6.2993025779724121 -1.319196343421936
  endloop
 endfacet
 facet normal 0.25813241231999051 0.035067751862184596 0.96547289474598641
  outer loop
   vertex 2.4984495639801025 -54.999477386474609 -0.2183111310005188
   vertex 0 -6.2993025779724121 -1.319196343421936
   vertex 0 -54.999477386474609 0.44968360662460327
  endloop
 endfacet
 facet normal -0.22713606636761277 0.035349187143512456 0.97322127099819411
  outer loop
   vertex 0 -54.999477386474609 0.44968360662460327
   vertex 0 -6.2993025779724121 -1.319196343421936
   vertex -1.4218212366104126 -6.1369686126708984 -1.6569255590438843
  endloop
 endfacet
 facet normal -0.70671342720031538 0.033348178314371264 0.70671354226298611
  outer loop
   vertex -2.5264382362365723 -5.7693848609924316 -2.5693540573120117
   vertex -4.3289046287536621 -54.999477386474609 -2.0487658977508545
   vertex -2.4984495639801025 -54.999477386474609 -0.2183111310005188
  endloop
 endfacet
 facet normal -0.62912608120586555 0.036721939200257424 0.77643536313586559
  outer loop
   vertex -2.5264382362365723 -5.7693848609924316 -2.5693540573120117
   vertex -2.4984495639801025 -54.999477386474609 -0.2183111310005188
   vertex -1.4218212366104126 -6.1369686126708984 -1.6569255590438843
  endloop
 endfacet
 facet normal -0.25814093597589205 0.034114313525718545 0.96550477512343735
  outer loop
   vertex -1.4218212366104126 -6.1369686126708984 -1.6569255590438843
   vertex -2.4984495639801025 -54.999477386474609 -0.2183111310005188
   vertex 0 -54.999477386474609 0.44968360662460327
  endloop
 endfacet
 facet normal 0 -1 0
  outer loop
   vertex 0 -54.999477386474609 0.44968360662460327
   vertex -2.4984495639801025 -54.999477386474609 -0.2183111310005188
   vertex 0 -54.999477386474609 -9.5497121810913086
  endloop
 endfacet
endsolid
